<mxfile host="65bd71144e" pages="7">
    <diagram id="A9nJj7_lGz8sSFMYyHG2" name="Ver0.1">
        <mxGraphModel dx="544" dy="428" grid="1" gridSize="10" guides="1" tooltips="1" connect="1" arrows="1" fold="1" page="1" pageScale="1" pageWidth="827" pageHeight="1169" math="0" shadow="0">
            <root>
                <mxCell id="0"/>
                <mxCell id="1" parent="0"/>
                <mxCell id="g5tP_tBcn0ctcR8wQQuv-1" style="edgeStyle=orthogonalEdgeStyle;rounded=0;orthogonalLoop=1;jettySize=auto;html=1;endArrow=ERoneToMany;endFill=0;startArrow=ERone;startFill=0;" parent="1" source="g5tP_tBcn0ctcR8wQQuv-2" target="g5tP_tBcn0ctcR8wQQuv-6" edge="1">
                    <mxGeometry relative="1" as="geometry"/>
                </mxCell>
                <mxCell id="g5tP_tBcn0ctcR8wQQuv-2" value="農作者" style="swimlane;fontStyle=0;childLayout=stackLayout;horizontal=1;startSize=30;horizontalStack=0;resizeParent=1;resizeParentMax=0;resizeLast=0;collapsible=1;marginBottom=0;" parent="1" vertex="1">
                    <mxGeometry x="30" y="375" width="140" height="90" as="geometry"/>
                </mxCell>
                <mxCell id="g5tP_tBcn0ctcR8wQQuv-3" value="＊農作者ID" style="text;strokeColor=none;fillColor=none;align=left;verticalAlign=middle;spacingLeft=4;spacingRight=4;overflow=hidden;points=[[0,0.5],[1,0.5]];portConstraint=eastwest;rotatable=0;" parent="g5tP_tBcn0ctcR8wQQuv-2" vertex="1">
                    <mxGeometry y="30" width="140" height="30" as="geometry"/>
                </mxCell>
                <mxCell id="g5tP_tBcn0ctcR8wQQuv-4" value="農耕地ID" style="text;strokeColor=none;fillColor=none;align=left;verticalAlign=middle;spacingLeft=4;spacingRight=4;overflow=hidden;points=[[0,0.5],[1,0.5]];portConstraint=eastwest;rotatable=0;" parent="g5tP_tBcn0ctcR8wQQuv-2" vertex="1">
                    <mxGeometry y="60" width="140" height="30" as="geometry"/>
                </mxCell>
                <mxCell id="g5tP_tBcn0ctcR8wQQuv-5" style="edgeStyle=orthogonalEdgeStyle;rounded=0;orthogonalLoop=1;jettySize=auto;html=1;endArrow=ERoneToMany;endFill=0;startArrow=ERzeroToOne;startFill=0;" parent="1" source="g5tP_tBcn0ctcR8wQQuv-6" target="g5tP_tBcn0ctcR8wQQuv-10" edge="1">
                    <mxGeometry relative="1" as="geometry"/>
                </mxCell>
                <mxCell id="g5tP_tBcn0ctcR8wQQuv-6" value="農作地" style="swimlane;fontStyle=0;childLayout=stackLayout;horizontal=1;startSize=30;horizontalStack=0;resizeParent=1;resizeParentMax=0;resizeLast=0;collapsible=1;marginBottom=0;" parent="1" vertex="1">
                    <mxGeometry x="274" y="360" width="140" height="120" as="geometry"/>
                </mxCell>
                <mxCell id="g5tP_tBcn0ctcR8wQQuv-7" value="＊農作地ID" style="text;strokeColor=none;fillColor=none;align=left;verticalAlign=middle;spacingLeft=4;spacingRight=4;overflow=hidden;points=[[0,0.5],[1,0.5]];portConstraint=eastwest;rotatable=0;" parent="g5tP_tBcn0ctcR8wQQuv-6" vertex="1">
                    <mxGeometry y="30" width="140" height="30" as="geometry"/>
                </mxCell>
                <mxCell id="g5tP_tBcn0ctcR8wQQuv-8" value="機械ID" style="text;strokeColor=none;fillColor=none;align=left;verticalAlign=middle;spacingLeft=4;spacingRight=4;overflow=hidden;points=[[0,0.5],[1,0.5]];portConstraint=eastwest;rotatable=0;" parent="g5tP_tBcn0ctcR8wQQuv-6" vertex="1">
                    <mxGeometry y="60" width="140" height="30" as="geometry"/>
                </mxCell>
                <mxCell id="g5tP_tBcn0ctcR8wQQuv-9" value="農作物" style="text;strokeColor=none;fillColor=none;align=left;verticalAlign=middle;spacingLeft=4;spacingRight=4;overflow=hidden;points=[[0,0.5],[1,0.5]];portConstraint=eastwest;rotatable=0;" parent="g5tP_tBcn0ctcR8wQQuv-6" vertex="1">
                    <mxGeometry y="90" width="140" height="30" as="geometry"/>
                </mxCell>
                <mxCell id="g5tP_tBcn0ctcR8wQQuv-10" value="機械" style="swimlane;fontStyle=0;childLayout=stackLayout;horizontal=1;startSize=30;horizontalStack=0;resizeParent=1;resizeParentMax=0;resizeLast=0;collapsible=1;marginBottom=0;" parent="1" vertex="1">
                    <mxGeometry x="510" y="375" width="140" height="90" as="geometry"/>
                </mxCell>
                <mxCell id="g5tP_tBcn0ctcR8wQQuv-11" value="＊機械ユニ―クID" style="text;strokeColor=none;fillColor=none;align=left;verticalAlign=middle;spacingLeft=4;spacingRight=4;overflow=hidden;points=[[0,0.5],[1,0.5]];portConstraint=eastwest;rotatable=0;" parent="g5tP_tBcn0ctcR8wQQuv-10" vertex="1">
                    <mxGeometry y="30" width="140" height="30" as="geometry"/>
                </mxCell>
                <mxCell id="g5tP_tBcn0ctcR8wQQuv-12" value="起動日付" style="text;strokeColor=none;fillColor=none;align=left;verticalAlign=middle;spacingLeft=4;spacingRight=4;overflow=hidden;points=[[0,0.5],[1,0.5]];portConstraint=eastwest;rotatable=0;" parent="g5tP_tBcn0ctcR8wQQuv-10" vertex="1">
                    <mxGeometry y="60" width="140" height="30" as="geometry"/>
                </mxCell>
                <mxCell id="g5tP_tBcn0ctcR8wQQuv-13" value="収穫データ（日ごと）" style="swimlane;fontStyle=0;childLayout=stackLayout;horizontal=1;startSize=30;horizontalStack=0;resizeParent=1;resizeParentMax=0;resizeLast=0;collapsible=1;marginBottom=0;" parent="1" vertex="1">
                    <mxGeometry x="800" y="345" width="140" height="150" as="geometry"/>
                </mxCell>
                <mxCell id="g5tP_tBcn0ctcR8wQQuv-14" value="＊日付" style="text;strokeColor=none;fillColor=none;align=left;verticalAlign=middle;spacingLeft=4;spacingRight=4;overflow=hidden;points=[[0,0.5],[1,0.5]];portConstraint=eastwest;rotatable=0;" parent="g5tP_tBcn0ctcR8wQQuv-13" vertex="1">
                    <mxGeometry y="30" width="140" height="30" as="geometry"/>
                </mxCell>
                <mxCell id="g5tP_tBcn0ctcR8wQQuv-15" value="収穫数" style="text;strokeColor=none;fillColor=none;align=left;verticalAlign=middle;spacingLeft=4;spacingRight=4;overflow=hidden;points=[[0,0.5],[1,0.5]];portConstraint=eastwest;rotatable=0;" parent="g5tP_tBcn0ctcR8wQQuv-13" vertex="1">
                    <mxGeometry y="60" width="140" height="30" as="geometry"/>
                </mxCell>
                <mxCell id="g5tP_tBcn0ctcR8wQQuv-16" value="未収穫個数" style="text;strokeColor=none;fillColor=none;align=left;verticalAlign=middle;spacingLeft=4;spacingRight=4;overflow=hidden;points=[[0,0.5],[1,0.5]];portConstraint=eastwest;rotatable=0;" parent="g5tP_tBcn0ctcR8wQQuv-13" vertex="1">
                    <mxGeometry y="90" width="140" height="30" as="geometry"/>
                </mxCell>
                <mxCell id="g5tP_tBcn0ctcR8wQQuv-17" value="写真URL" style="text;strokeColor=none;fillColor=none;align=left;verticalAlign=middle;spacingLeft=4;spacingRight=4;overflow=hidden;points=[[0,0.5],[1,0.5]];portConstraint=eastwest;rotatable=0;" parent="g5tP_tBcn0ctcR8wQQuv-13" vertex="1">
                    <mxGeometry y="120" width="140" height="30" as="geometry"/>
                </mxCell>
                <mxCell id="g5tP_tBcn0ctcR8wQQuv-18" style="edgeStyle=orthogonalEdgeStyle;rounded=0;orthogonalLoop=1;jettySize=auto;html=1;endArrow=ERoneToMany;endFill=0;startArrow=ERone;startFill=0;" parent="1" source="g5tP_tBcn0ctcR8wQQuv-11" target="g5tP_tBcn0ctcR8wQQuv-13" edge="1">
                    <mxGeometry relative="1" as="geometry"/>
                </mxCell>
                <mxCell id="g5tP_tBcn0ctcR8wQQuv-19" value="1" style="text;html=1;align=center;verticalAlign=middle;resizable=0;points=[];autosize=1;strokeColor=none;fillColor=none;" parent="1" vertex="1">
                    <mxGeometry x="170" y="420" width="30" height="30" as="geometry"/>
                </mxCell>
                <mxCell id="g5tP_tBcn0ctcR8wQQuv-20" value="1...*" style="text;html=1;align=center;verticalAlign=middle;resizable=0;points=[];autosize=1;strokeColor=none;fillColor=none;" parent="1" vertex="1">
                    <mxGeometry x="235" y="420" width="40" height="30" as="geometry"/>
                </mxCell>
                <mxCell id="g5tP_tBcn0ctcR8wQQuv-21" value="0" style="text;html=1;align=center;verticalAlign=middle;resizable=0;points=[];autosize=1;strokeColor=none;fillColor=none;" parent="1" vertex="1">
                    <mxGeometry x="410" y="420" width="30" height="30" as="geometry"/>
                </mxCell>
                <mxCell id="g5tP_tBcn0ctcR8wQQuv-22" value="1...*" style="text;html=1;align=center;verticalAlign=middle;resizable=0;points=[];autosize=1;strokeColor=none;fillColor=none;" parent="1" vertex="1">
                    <mxGeometry x="480" y="420" width="40" height="30" as="geometry"/>
                </mxCell>
                <mxCell id="g5tP_tBcn0ctcR8wQQuv-23" value="1...*" style="text;html=1;align=center;verticalAlign=middle;resizable=0;points=[];autosize=1;strokeColor=none;fillColor=none;" parent="1" vertex="1">
                    <mxGeometry x="760" y="420" width="40" height="30" as="geometry"/>
                </mxCell>
                <mxCell id="g5tP_tBcn0ctcR8wQQuv-24" value="1" style="text;html=1;align=center;verticalAlign=middle;resizable=0;points=[];autosize=1;strokeColor=none;fillColor=none;" parent="1" vertex="1">
                    <mxGeometry x="650" y="420" width="30" height="30" as="geometry"/>
                </mxCell>
                <mxCell id="g5tP_tBcn0ctcR8wQQuv-25" value="稼働" style="rounded=0;whiteSpace=wrap;html=1;" parent="1" vertex="1">
                    <mxGeometry x="520" y="495" width="120" height="60" as="geometry"/>
                </mxCell>
            </root>
        </mxGraphModel>
    </diagram>
    <diagram id="wyyeyTpYfaSdBU-kiyXK" name="Ver0.2">
        <mxGraphModel dx="1079" dy="426" grid="1" gridSize="10" guides="1" tooltips="1" connect="1" arrows="1" fold="1" page="1" pageScale="1" pageWidth="827" pageHeight="1169" math="0" shadow="0">
            <root>
                <mxCell id="0"/>
                <mxCell id="1" parent="0"/>
                <mxCell id="h_DqcIETTOcYV2jyKqVN-20" style="edgeStyle=orthogonalEdgeStyle;rounded=0;orthogonalLoop=1;jettySize=auto;html=1;endArrow=ERoneToMany;endFill=0;startArrow=ERoneToMany;startFill=0;" parent="1" source="h_DqcIETTOcYV2jyKqVN-1" target="h_DqcIETTOcYV2jyKqVN-5" edge="1">
                    <mxGeometry relative="1" as="geometry"/>
                </mxCell>
                <mxCell id="h_DqcIETTOcYV2jyKqVN-1" value="農作者" style="swimlane;fontStyle=0;childLayout=stackLayout;horizontal=1;startSize=30;horizontalStack=0;resizeParent=1;resizeParentMax=0;resizeLast=0;collapsible=1;marginBottom=0;" parent="1" vertex="1">
                    <mxGeometry x="30" y="330" width="140" height="120" as="geometry"/>
                </mxCell>
                <mxCell id="h_DqcIETTOcYV2jyKqVN-2" value="＊農作者ID" style="text;strokeColor=none;fillColor=none;align=left;verticalAlign=middle;spacingLeft=4;spacingRight=4;overflow=hidden;points=[[0,0.5],[1,0.5]];portConstraint=eastwest;rotatable=0;" parent="h_DqcIETTOcYV2jyKqVN-1" vertex="1">
                    <mxGeometry y="30" width="140" height="30" as="geometry"/>
                </mxCell>
                <mxCell id="6XcvSc2eWuU8QCzYzXET-35" value="農作者名" style="text;strokeColor=none;fillColor=none;align=left;verticalAlign=middle;spacingLeft=4;spacingRight=4;overflow=hidden;points=[[0,0.5],[1,0.5]];portConstraint=eastwest;rotatable=0;" parent="h_DqcIETTOcYV2jyKqVN-1" vertex="1">
                    <mxGeometry y="60" width="140" height="30" as="geometry"/>
                </mxCell>
                <mxCell id="h_DqcIETTOcYV2jyKqVN-3" value="農耕地ID" style="text;strokeColor=none;fillColor=none;align=left;verticalAlign=middle;spacingLeft=4;spacingRight=4;overflow=hidden;points=[[0,0.5],[1,0.5]];portConstraint=eastwest;rotatable=0;" parent="h_DqcIETTOcYV2jyKqVN-1" vertex="1">
                    <mxGeometry y="90" width="140" height="30" as="geometry"/>
                </mxCell>
                <mxCell id="h_DqcIETTOcYV2jyKqVN-21" style="edgeStyle=orthogonalEdgeStyle;rounded=0;orthogonalLoop=1;jettySize=auto;html=1;endArrow=ERoneToMany;endFill=0;startArrow=ERzeroToMany;startFill=0;" parent="1" source="h_DqcIETTOcYV2jyKqVN-5" target="h_DqcIETTOcYV2jyKqVN-9" edge="1">
                    <mxGeometry relative="1" as="geometry"/>
                </mxCell>
                <mxCell id="h_DqcIETTOcYV2jyKqVN-5" value="農耕地" style="swimlane;fontStyle=0;childLayout=stackLayout;horizontal=1;startSize=30;horizontalStack=0;resizeParent=1;resizeParentMax=0;resizeLast=0;collapsible=1;marginBottom=0;" parent="1" vertex="1">
                    <mxGeometry x="274" y="345" width="140" height="90" as="geometry"/>
                </mxCell>
                <mxCell id="h_DqcIETTOcYV2jyKqVN-6" value="＊農耕地ID" style="text;strokeColor=none;fillColor=none;align=left;verticalAlign=middle;spacingLeft=4;spacingRight=4;overflow=hidden;points=[[0,0.5],[1,0.5]];portConstraint=eastwest;rotatable=0;" parent="h_DqcIETTOcYV2jyKqVN-5" vertex="1">
                    <mxGeometry y="30" width="140" height="30" as="geometry"/>
                </mxCell>
                <mxCell id="h_DqcIETTOcYV2jyKqVN-7" value="農作物ID" style="text;strokeColor=none;fillColor=none;align=left;verticalAlign=middle;spacingLeft=4;spacingRight=4;overflow=hidden;points=[[0,0.5],[1,0.5]];portConstraint=eastwest;rotatable=0;" parent="h_DqcIETTOcYV2jyKqVN-5" vertex="1">
                    <mxGeometry y="60" width="140" height="30" as="geometry"/>
                </mxCell>
                <mxCell id="h_DqcIETTOcYV2jyKqVN-9" value="収穫" style="swimlane;fontStyle=0;childLayout=stackLayout;horizontal=1;startSize=30;horizontalStack=0;resizeParent=1;resizeParentMax=0;resizeLast=0;collapsible=1;marginBottom=0;" parent="1" vertex="1">
                    <mxGeometry x="530" y="300" width="140" height="180" as="geometry">
                        <mxRectangle x="510" y="375" width="60" height="30" as="alternateBounds"/>
                    </mxGeometry>
                </mxCell>
                <mxCell id="h_DqcIETTOcYV2jyKqVN-10" value="＊収穫ID" style="text;strokeColor=none;fillColor=none;align=left;verticalAlign=middle;spacingLeft=4;spacingRight=4;overflow=hidden;points=[[0,0.5],[1,0.5]];portConstraint=eastwest;rotatable=0;" parent="h_DqcIETTOcYV2jyKqVN-9" vertex="1">
                    <mxGeometry y="30" width="140" height="30" as="geometry"/>
                </mxCell>
                <mxCell id="h_DqcIETTOcYV2jyKqVN-15" value="日付" style="text;strokeColor=none;fillColor=none;align=left;verticalAlign=middle;spacingLeft=4;spacingRight=4;overflow=hidden;points=[[0,0.5],[1,0.5]];portConstraint=eastwest;rotatable=0;" parent="h_DqcIETTOcYV2jyKqVN-9" vertex="1">
                    <mxGeometry y="60" width="140" height="30" as="geometry"/>
                </mxCell>
                <mxCell id="6XcvSc2eWuU8QCzYzXET-37" value="農耕地id" style="text;strokeColor=none;fillColor=none;align=left;verticalAlign=middle;spacingLeft=4;spacingRight=4;overflow=hidden;points=[[0,0.5],[1,0.5]];portConstraint=eastwest;rotatable=0;" parent="h_DqcIETTOcYV2jyKqVN-9" vertex="1">
                    <mxGeometry y="90" width="140" height="30" as="geometry"/>
                </mxCell>
                <mxCell id="6XcvSc2eWuU8QCzYzXET-30" value="機械id" style="text;strokeColor=none;fillColor=none;align=left;verticalAlign=middle;spacingLeft=4;spacingRight=4;overflow=hidden;points=[[0,0.5],[1,0.5]];portConstraint=eastwest;rotatable=0;" parent="h_DqcIETTOcYV2jyKqVN-9" vertex="1">
                    <mxGeometry y="120" width="140" height="30" as="geometry"/>
                </mxCell>
                <mxCell id="h_DqcIETTOcYV2jyKqVN-16" value="収穫数" style="text;strokeColor=none;fillColor=none;align=left;verticalAlign=middle;spacingLeft=4;spacingRight=4;overflow=hidden;points=[[0,0.5],[1,0.5]];portConstraint=eastwest;rotatable=0;" parent="h_DqcIETTOcYV2jyKqVN-9" vertex="1">
                    <mxGeometry y="150" width="140" height="30" as="geometry"/>
                </mxCell>
                <mxCell id="h_DqcIETTOcYV2jyKqVN-23" value="1...*" style="text;html=1;align=center;verticalAlign=middle;resizable=0;points=[];autosize=1;strokeColor=none;fillColor=none;" parent="1" vertex="1">
                    <mxGeometry x="165" y="420" width="40" height="30" as="geometry"/>
                </mxCell>
                <mxCell id="h_DqcIETTOcYV2jyKqVN-24" value="1...*" style="text;html=1;align=center;verticalAlign=middle;resizable=0;points=[];autosize=1;strokeColor=none;fillColor=none;" parent="1" vertex="1">
                    <mxGeometry x="235" y="420" width="40" height="30" as="geometry"/>
                </mxCell>
                <mxCell id="h_DqcIETTOcYV2jyKqVN-25" value="0...*" style="text;html=1;align=center;verticalAlign=middle;resizable=0;points=[];autosize=1;strokeColor=none;fillColor=none;" parent="1" vertex="1">
                    <mxGeometry x="414" y="420" width="40" height="30" as="geometry"/>
                </mxCell>
                <mxCell id="h_DqcIETTOcYV2jyKqVN-26" value="1...*" style="text;html=1;align=center;verticalAlign=middle;resizable=0;points=[];autosize=1;strokeColor=none;fillColor=none;" parent="1" vertex="1">
                    <mxGeometry x="480" y="420" width="40" height="30" as="geometry"/>
                </mxCell>
                <mxCell id="6XcvSc2eWuU8QCzYzXET-4" value="温度・湿度" style="swimlane;fontStyle=0;childLayout=stackLayout;horizontal=1;startSize=30;horizontalStack=0;resizeParent=1;resizeParentMax=0;resizeLast=0;collapsible=1;marginBottom=0;" parent="1" vertex="1">
                    <mxGeometry x="530" y="520" width="140" height="180" as="geometry">
                        <mxRectangle x="510" y="375" width="60" height="30" as="alternateBounds"/>
                    </mxGeometry>
                </mxCell>
                <mxCell id="6XcvSc2eWuU8QCzYzXET-21" value="＊id" style="text;strokeColor=none;fillColor=none;align=left;verticalAlign=middle;spacingLeft=4;spacingRight=4;overflow=hidden;points=[[0,0.5],[1,0.5]];portConstraint=eastwest;rotatable=0;" parent="6XcvSc2eWuU8QCzYzXET-4" vertex="1">
                    <mxGeometry y="30" width="140" height="30" as="geometry"/>
                </mxCell>
                <mxCell id="6XcvSc2eWuU8QCzYzXET-44" value="農耕地ID" style="text;strokeColor=none;fillColor=none;align=left;verticalAlign=middle;spacingLeft=4;spacingRight=4;overflow=hidden;points=[[0,0.5],[1,0.5]];portConstraint=eastwest;rotatable=0;" parent="6XcvSc2eWuU8QCzYzXET-4" vertex="1">
                    <mxGeometry y="60" width="140" height="30" as="geometry"/>
                </mxCell>
                <mxCell id="6XcvSc2eWuU8QCzYzXET-5" value="日付" style="text;strokeColor=none;fillColor=none;align=left;verticalAlign=middle;spacingLeft=4;spacingRight=4;overflow=hidden;points=[[0,0.5],[1,0.5]];portConstraint=eastwest;rotatable=0;" parent="6XcvSc2eWuU8QCzYzXET-4" vertex="1">
                    <mxGeometry y="90" width="140" height="30" as="geometry"/>
                </mxCell>
                <mxCell id="6XcvSc2eWuU8QCzYzXET-2" value="湿度データ" style="text;strokeColor=none;fillColor=none;align=left;verticalAlign=middle;spacingLeft=4;spacingRight=4;overflow=hidden;points=[[0,0.5],[1,0.5]];portConstraint=eastwest;rotatable=0;" parent="6XcvSc2eWuU8QCzYzXET-4" vertex="1">
                    <mxGeometry y="120" width="140" height="30" as="geometry"/>
                </mxCell>
                <mxCell id="6XcvSc2eWuU8QCzYzXET-1" value="温度データ" style="text;strokeColor=none;fillColor=none;align=left;verticalAlign=middle;spacingLeft=4;spacingRight=4;overflow=hidden;points=[[0,0.5],[1,0.5]];portConstraint=eastwest;rotatable=0;" parent="6XcvSc2eWuU8QCzYzXET-4" vertex="1">
                    <mxGeometry y="150" width="140" height="30" as="geometry"/>
                </mxCell>
                <mxCell id="6XcvSc2eWuU8QCzYzXET-9" style="edgeStyle=orthogonalEdgeStyle;rounded=0;orthogonalLoop=1;jettySize=auto;html=1;endArrow=ERoneToMany;endFill=0;startArrow=ERzeroToMany;startFill=0;" parent="1" source="h_DqcIETTOcYV2jyKqVN-5" target="6XcvSc2eWuU8QCzYzXET-4" edge="1">
                    <mxGeometry relative="1" as="geometry">
                        <mxPoint x="424" y="430" as="sourcePoint"/>
                        <mxPoint x="540.0000000000002" y="430" as="targetPoint"/>
                        <Array as="points">
                            <mxPoint x="380" y="610"/>
                        </Array>
                    </mxGeometry>
                </mxCell>
                <mxCell id="6XcvSc2eWuU8QCzYzXET-10" value="未収穫" style="swimlane;fontStyle=0;childLayout=stackLayout;horizontal=1;startSize=30;horizontalStack=0;resizeParent=1;resizeParentMax=0;resizeLast=0;collapsible=1;marginBottom=0;" parent="1" vertex="1">
                    <mxGeometry x="260" y="730" width="140" height="150" as="geometry">
                        <mxRectangle x="510" y="375" width="60" height="30" as="alternateBounds"/>
                    </mxGeometry>
                </mxCell>
                <mxCell id="6XcvSc2eWuU8QCzYzXET-22" value="＊id" style="text;strokeColor=none;fillColor=none;align=left;verticalAlign=middle;spacingLeft=4;spacingRight=4;overflow=hidden;points=[[0,0.5],[1,0.5]];portConstraint=eastwest;rotatable=0;" parent="6XcvSc2eWuU8QCzYzXET-10" vertex="1">
                    <mxGeometry y="30" width="140" height="30" as="geometry"/>
                </mxCell>
                <mxCell id="6XcvSc2eWuU8QCzYzXET-38" value="農耕地id" style="text;strokeColor=none;fillColor=none;align=left;verticalAlign=middle;spacingLeft=4;spacingRight=4;overflow=hidden;points=[[0,0.5],[1,0.5]];portConstraint=eastwest;rotatable=0;" parent="6XcvSc2eWuU8QCzYzXET-10" vertex="1">
                    <mxGeometry y="60" width="140" height="30" as="geometry"/>
                </mxCell>
                <mxCell id="6XcvSc2eWuU8QCzYzXET-11" value="日付" style="text;strokeColor=none;fillColor=none;align=left;verticalAlign=middle;spacingLeft=4;spacingRight=4;overflow=hidden;points=[[0,0.5],[1,0.5]];portConstraint=eastwest;rotatable=0;" parent="6XcvSc2eWuU8QCzYzXET-10" vertex="1">
                    <mxGeometry y="90" width="140" height="30" as="geometry"/>
                </mxCell>
                <mxCell id="h_DqcIETTOcYV2jyKqVN-18" value="写真URL" style="text;strokeColor=none;fillColor=none;align=left;verticalAlign=middle;spacingLeft=4;spacingRight=4;overflow=hidden;points=[[0,0.5],[1,0.5]];portConstraint=eastwest;rotatable=0;" parent="6XcvSc2eWuU8QCzYzXET-10" vertex="1">
                    <mxGeometry y="120" width="140" height="30" as="geometry"/>
                </mxCell>
                <mxCell id="6XcvSc2eWuU8QCzYzXET-26" value="農作物" style="swimlane;fontStyle=0;childLayout=stackLayout;horizontal=1;startSize=30;horizontalStack=0;resizeParent=1;resizeParentMax=0;resizeLast=0;collapsible=1;marginBottom=0;" parent="1" vertex="1">
                    <mxGeometry x="95" y="630" width="140" height="90" as="geometry">
                        <mxRectangle x="510" y="375" width="60" height="30" as="alternateBounds"/>
                    </mxGeometry>
                </mxCell>
                <mxCell id="6XcvSc2eWuU8QCzYzXET-27" value="＊id" style="text;strokeColor=none;fillColor=none;align=left;verticalAlign=middle;spacingLeft=4;spacingRight=4;overflow=hidden;points=[[0,0.5],[1,0.5]];portConstraint=eastwest;rotatable=0;" parent="6XcvSc2eWuU8QCzYzXET-26" vertex="1">
                    <mxGeometry y="30" width="140" height="30" as="geometry"/>
                </mxCell>
                <mxCell id="6XcvSc2eWuU8QCzYzXET-28" value="作物名" style="text;strokeColor=none;fillColor=none;align=left;verticalAlign=middle;spacingLeft=4;spacingRight=4;overflow=hidden;points=[[0,0.5],[1,0.5]];portConstraint=eastwest;rotatable=0;" parent="6XcvSc2eWuU8QCzYzXET-26" vertex="1">
                    <mxGeometry y="60" width="140" height="30" as="geometry"/>
                </mxCell>
                <mxCell id="6XcvSc2eWuU8QCzYzXET-31" value="機械" style="swimlane;fontStyle=0;childLayout=stackLayout;horizontal=1;startSize=30;horizontalStack=0;resizeParent=1;resizeParentMax=0;resizeLast=0;collapsible=1;marginBottom=0;" parent="1" vertex="1">
                    <mxGeometry x="280" y="170" width="140" height="120" as="geometry">
                        <mxRectangle x="510" y="375" width="60" height="30" as="alternateBounds"/>
                    </mxGeometry>
                </mxCell>
                <mxCell id="6XcvSc2eWuU8QCzYzXET-32" value="id" style="text;strokeColor=none;fillColor=none;align=left;verticalAlign=middle;spacingLeft=4;spacingRight=4;overflow=hidden;points=[[0,0.5],[1,0.5]];portConstraint=eastwest;rotatable=0;" parent="6XcvSc2eWuU8QCzYzXET-31" vertex="1">
                    <mxGeometry y="30" width="140" height="30" as="geometry"/>
                </mxCell>
                <mxCell id="6XcvSc2eWuU8QCzYzXET-39" value="農耕地id" style="text;strokeColor=none;fillColor=none;align=left;verticalAlign=middle;spacingLeft=4;spacingRight=4;overflow=hidden;points=[[0,0.5],[1,0.5]];portConstraint=eastwest;rotatable=0;" parent="6XcvSc2eWuU8QCzYzXET-31" vertex="1">
                    <mxGeometry y="60" width="140" height="30" as="geometry"/>
                </mxCell>
                <mxCell id="6XcvSc2eWuU8QCzYzXET-33" value="機械番号" style="text;strokeColor=none;fillColor=none;align=left;verticalAlign=middle;spacingLeft=4;spacingRight=4;overflow=hidden;points=[[0,0.5],[1,0.5]];portConstraint=eastwest;rotatable=0;" parent="6XcvSc2eWuU8QCzYzXET-31" vertex="1">
                    <mxGeometry y="90" width="140" height="30" as="geometry"/>
                </mxCell>
                <mxCell id="6XcvSc2eWuU8QCzYzXET-47" style="edgeStyle=orthogonalEdgeStyle;rounded=0;orthogonalLoop=1;jettySize=auto;html=1;endArrow=ERoneToMany;endFill=0;startArrow=ERzeroToMany;startFill=0;" parent="1" source="h_DqcIETTOcYV2jyKqVN-5" target="6XcvSc2eWuU8QCzYzXET-31" edge="1">
                    <mxGeometry relative="1" as="geometry">
                        <mxPoint x="424" y="400" as="sourcePoint"/>
                        <mxPoint x="540.0000000000002" y="400" as="targetPoint"/>
                        <Array as="points">
                            <mxPoint x="344" y="310"/>
                            <mxPoint x="344" y="310"/>
                        </Array>
                    </mxGeometry>
                </mxCell>
                <mxCell id="6XcvSc2eWuU8QCzYzXET-50" style="edgeStyle=orthogonalEdgeStyle;rounded=0;orthogonalLoop=1;jettySize=auto;html=1;endArrow=ERoneToMany;endFill=0;startArrow=ERzeroToMany;startFill=0;" parent="1" source="h_DqcIETTOcYV2jyKqVN-5" target="6XcvSc2eWuU8QCzYzXET-10" edge="1">
                    <mxGeometry relative="1" as="geometry">
                        <mxPoint x="390.04347826086996" y="445" as="sourcePoint"/>
                        <mxPoint x="540.0000000000002" y="620" as="targetPoint"/>
                        <Array as="points">
                            <mxPoint x="330" y="520"/>
                            <mxPoint x="330" y="520"/>
                        </Array>
                    </mxGeometry>
                </mxCell>
                <mxCell id="6XcvSc2eWuU8QCzYzXET-51" style="edgeStyle=orthogonalEdgeStyle;rounded=0;orthogonalLoop=1;jettySize=auto;html=1;endArrow=ERoneToMany;endFill=0;startArrow=ERzeroToMany;startFill=0;" parent="1" source="h_DqcIETTOcYV2jyKqVN-5" target="6XcvSc2eWuU8QCzYzXET-26" edge="1">
                    <mxGeometry relative="1" as="geometry">
                        <mxPoint x="339.9565217391307" y="445" as="sourcePoint"/>
                        <mxPoint x="339.9565217391307" y="740" as="targetPoint"/>
                        <Array as="points">
                            <mxPoint x="300" y="520"/>
                            <mxPoint x="165" y="520"/>
                        </Array>
                    </mxGeometry>
                </mxCell>
                <mxCell id="xn6OwoDbsVvTpvQs83_l-1" value="所有" style="swimlane;fontStyle=0;childLayout=stackLayout;horizontal=1;startSize=30;horizontalStack=0;resizeParent=1;resizeParentMax=0;resizeLast=0;collapsible=1;marginBottom=0;" parent="1" vertex="1">
                    <mxGeometry x="65" y="60" width="140" height="90" as="geometry"/>
                </mxCell>
                <mxCell id="xn6OwoDbsVvTpvQs83_l-2" value="＊農作者ID" style="text;strokeColor=none;fillColor=none;align=left;verticalAlign=middle;spacingLeft=4;spacingRight=4;overflow=hidden;points=[[0,0.5],[1,0.5]];portConstraint=eastwest;rotatable=0;" parent="xn6OwoDbsVvTpvQs83_l-1" vertex="1">
                    <mxGeometry y="30" width="140" height="30" as="geometry"/>
                </mxCell>
                <mxCell id="xn6OwoDbsVvTpvQs83_l-3" value="＊農耕地ID" style="text;strokeColor=none;fillColor=none;align=left;verticalAlign=middle;spacingLeft=4;spacingRight=4;overflow=hidden;points=[[0,0.5],[1,0.5]];portConstraint=eastwest;rotatable=0;" parent="xn6OwoDbsVvTpvQs83_l-1" vertex="1">
                    <mxGeometry y="60" width="140" height="30" as="geometry"/>
                </mxCell>
                <mxCell id="xn6OwoDbsVvTpvQs83_l-5" value="所有テーブルがいる" style="text;html=1;align=center;verticalAlign=middle;resizable=0;points=[];autosize=1;strokeColor=none;fillColor=none;" parent="1" vertex="1">
                    <mxGeometry x="195" y="55" width="130" height="30" as="geometry"/>
                </mxCell>
                <mxCell id="xn6OwoDbsVvTpvQs83_l-6" value="所有テーブルがいる" style="shape=callout;whiteSpace=wrap;html=1;perimeter=calloutPerimeter;" parent="1" vertex="1">
                    <mxGeometry x="140" y="270" width="120" height="80" as="geometry"/>
                </mxCell>
                <mxCell id="xn6OwoDbsVvTpvQs83_l-7" value="収穫テーブルが移動" style="shape=callout;whiteSpace=wrap;html=1;perimeter=calloutPerimeter;size=10;position=0.5;" parent="1" vertex="1">
                    <mxGeometry x="165" y="460" width="95" height="50" as="geometry"/>
                </mxCell>
                <mxCell id="xn6OwoDbsVvTpvQs83_l-8" value="始まりの日付がいるかも？" style="shape=callout;whiteSpace=wrap;html=1;perimeter=calloutPerimeter;size=15;position=0.46;" parent="1" vertex="1">
                    <mxGeometry x="195" y="545" width="95" height="80" as="geometry"/>
                </mxCell>
            </root>
        </mxGraphModel>
    </diagram>
    <diagram name="Ver0.3" id="Sn69IB8KtT16ySyNjlel">
        <mxGraphModel dx="2461" dy="2045" grid="1" gridSize="10" guides="1" tooltips="1" connect="1" arrows="1" fold="1" page="1" pageScale="1" pageWidth="827" pageHeight="1169" math="0" shadow="0">
            <root>
                <mxCell id="6MGJ6JV7ijIOS6ycfr8U-0"/>
                <mxCell id="6MGJ6JV7ijIOS6ycfr8U-1" parent="6MGJ6JV7ijIOS6ycfr8U-0"/>
                <mxCell id="6MGJ6JV7ijIOS6ycfr8U-2" style="edgeStyle=orthogonalEdgeStyle;rounded=0;orthogonalLoop=1;jettySize=auto;html=1;endArrow=ERoneToMany;endFill=0;startArrow=ERone;startFill=0;" parent="6MGJ6JV7ijIOS6ycfr8U-1" source="6MGJ6JV7ijIOS6ycfr8U-3" target="6MGJ6JV7ijIOS6ycfr8U-43" edge="1">
                    <mxGeometry relative="1" as="geometry">
                        <mxPoint x="110" y="390" as="targetPoint"/>
                    </mxGeometry>
                </mxCell>
                <mxCell id="6MGJ6JV7ijIOS6ycfr8U-3" value="農作者" style="swimlane;fontStyle=0;childLayout=stackLayout;horizontal=1;startSize=30;horizontalStack=0;resizeParent=1;resizeParentMax=0;resizeLast=0;collapsible=1;marginBottom=0;" parent="6MGJ6JV7ijIOS6ycfr8U-1" vertex="1">
                    <mxGeometry x="-120" y="330" width="140" height="120" as="geometry"/>
                </mxCell>
                <mxCell id="6MGJ6JV7ijIOS6ycfr8U-4" value="＊農作者ID" style="text;strokeColor=none;fillColor=none;align=left;verticalAlign=middle;spacingLeft=4;spacingRight=4;overflow=hidden;points=[[0,0.5],[1,0.5]];portConstraint=eastwest;rotatable=0;" parent="6MGJ6JV7ijIOS6ycfr8U-3" vertex="1">
                    <mxGeometry y="30" width="140" height="30" as="geometry"/>
                </mxCell>
                <mxCell id="6MGJ6JV7ijIOS6ycfr8U-5" value="農作者名" style="text;strokeColor=none;fillColor=none;align=left;verticalAlign=middle;spacingLeft=4;spacingRight=4;overflow=hidden;points=[[0,0.5],[1,0.5]];portConstraint=eastwest;rotatable=0;" parent="6MGJ6JV7ijIOS6ycfr8U-3" vertex="1">
                    <mxGeometry y="60" width="140" height="30" as="geometry"/>
                </mxCell>
                <mxCell id="6MGJ6JV7ijIOS6ycfr8U-6" value="農耕地ID" style="text;strokeColor=none;fillColor=none;align=left;verticalAlign=middle;spacingLeft=4;spacingRight=4;overflow=hidden;points=[[0,0.5],[1,0.5]];portConstraint=eastwest;rotatable=0;" parent="6MGJ6JV7ijIOS6ycfr8U-3" vertex="1">
                    <mxGeometry y="90" width="140" height="30" as="geometry"/>
                </mxCell>
                <mxCell id="xvRCfw0vevKAqugcrRw_-4" style="edgeStyle=orthogonalEdgeStyle;rounded=0;orthogonalLoop=1;jettySize=auto;html=1;startArrow=ERone;startFill=0;endArrow=ERzeroToMany;endFill=0;" parent="6MGJ6JV7ijIOS6ycfr8U-1" source="6MGJ6JV7ijIOS6ycfr8U-33" target="6MGJ6JV7ijIOS6ycfr8U-36" edge="1">
                    <mxGeometry relative="1" as="geometry">
                        <mxPoint x="344" y="150" as="sourcePoint"/>
                    </mxGeometry>
                </mxCell>
                <mxCell id="6MGJ6JV7ijIOS6ycfr8U-8" value="農耕地" style="swimlane;fontStyle=0;childLayout=stackLayout;horizontal=1;startSize=30;horizontalStack=0;resizeParent=1;resizeParentMax=0;resizeLast=0;collapsible=1;marginBottom=0;" parent="6MGJ6JV7ijIOS6ycfr8U-1" vertex="1">
                    <mxGeometry x="274" y="345" width="140" height="90" as="geometry"/>
                </mxCell>
                <mxCell id="6MGJ6JV7ijIOS6ycfr8U-9" value="＊農耕地ID" style="text;strokeColor=none;fillColor=none;align=left;verticalAlign=middle;spacingLeft=4;spacingRight=4;overflow=hidden;points=[[0,0.5],[1,0.5]];portConstraint=eastwest;rotatable=0;" parent="6MGJ6JV7ijIOS6ycfr8U-8" vertex="1">
                    <mxGeometry y="30" width="140" height="30" as="geometry"/>
                </mxCell>
                <mxCell id="6MGJ6JV7ijIOS6ycfr8U-10" value="農耕地名" style="text;strokeColor=none;fillColor=none;align=left;verticalAlign=middle;spacingLeft=4;spacingRight=4;overflow=hidden;points=[[0,0.5],[1,0.5]];portConstraint=eastwest;rotatable=0;" parent="6MGJ6JV7ijIOS6ycfr8U-8" vertex="1">
                    <mxGeometry y="60" width="140" height="30" as="geometry"/>
                </mxCell>
                <mxCell id="6MGJ6JV7ijIOS6ycfr8U-11" value="収穫" style="swimlane;fontStyle=0;childLayout=stackLayout;horizontal=1;startSize=30;horizontalStack=0;resizeParent=1;resizeParentMax=0;resizeLast=0;collapsible=1;marginBottom=0;" parent="6MGJ6JV7ijIOS6ycfr8U-1" vertex="1">
                    <mxGeometry x="600" y="-240" width="140" height="180" as="geometry">
                        <mxRectangle x="510" y="375" width="60" height="30" as="alternateBounds"/>
                    </mxGeometry>
                </mxCell>
                <mxCell id="6MGJ6JV7ijIOS6ycfr8U-12" value="*収穫ID" style="text;strokeColor=none;fillColor=none;align=left;verticalAlign=middle;spacingLeft=4;spacingRight=4;overflow=hidden;points=[[0,0.5],[1,0.5]];portConstraint=eastwest;rotatable=0;" parent="6MGJ6JV7ijIOS6ycfr8U-11" vertex="1">
                    <mxGeometry y="30" width="140" height="30" as="geometry"/>
                </mxCell>
                <mxCell id="6MGJ6JV7ijIOS6ycfr8U-15" value="*機械ID" style="text;strokeColor=none;fillColor=none;align=left;verticalAlign=middle;spacingLeft=4;spacingRight=4;overflow=hidden;points=[[0,0.5],[1,0.5]];portConstraint=eastwest;rotatable=0;" parent="6MGJ6JV7ijIOS6ycfr8U-11" vertex="1">
                    <mxGeometry y="60" width="140" height="30" as="geometry"/>
                </mxCell>
                <mxCell id="6MGJ6JV7ijIOS6ycfr8U-13" value="収穫日付" style="text;strokeColor=none;fillColor=none;align=left;verticalAlign=middle;spacingLeft=4;spacingRight=4;overflow=hidden;points=[[0,0.5],[1,0.5]];portConstraint=eastwest;rotatable=0;" parent="6MGJ6JV7ijIOS6ycfr8U-11" vertex="1">
                    <mxGeometry y="90" width="140" height="30" as="geometry"/>
                </mxCell>
                <mxCell id="CTIrRIZIcrFRATEF7ok7-7" value="収穫数" style="text;strokeColor=none;fillColor=none;align=left;verticalAlign=middle;spacingLeft=4;spacingRight=4;overflow=hidden;points=[[0,0.5],[1,0.5]];portConstraint=eastwest;rotatable=0;" vertex="1" parent="6MGJ6JV7ijIOS6ycfr8U-11">
                    <mxGeometry y="120" width="140" height="30" as="geometry"/>
                </mxCell>
                <mxCell id="6MGJ6JV7ijIOS6ycfr8U-16" value="写真URL" style="text;strokeColor=none;fillColor=none;align=left;verticalAlign=middle;spacingLeft=4;spacingRight=4;overflow=hidden;points=[[0,0.5],[1,0.5]];portConstraint=eastwest;rotatable=0;" parent="6MGJ6JV7ijIOS6ycfr8U-11" vertex="1">
                    <mxGeometry y="150" width="140" height="30" as="geometry"/>
                </mxCell>
                <mxCell id="6MGJ6JV7ijIOS6ycfr8U-17" value="1...*" style="text;html=1;align=center;verticalAlign=middle;resizable=0;points=[];autosize=1;strokeColor=none;fillColor=none;" parent="6MGJ6JV7ijIOS6ycfr8U-1" vertex="1">
                    <mxGeometry x="20" y="405" width="40" height="30" as="geometry"/>
                </mxCell>
                <mxCell id="6MGJ6JV7ijIOS6ycfr8U-19" value="0...*" style="text;html=1;align=center;verticalAlign=middle;resizable=0;points=[];autosize=1;strokeColor=none;fillColor=none;" parent="6MGJ6JV7ijIOS6ycfr8U-1" vertex="1">
                    <mxGeometry x="414" y="420" width="40" height="30" as="geometry"/>
                </mxCell>
                <mxCell id="6MGJ6JV7ijIOS6ycfr8U-20" value="1...*" style="text;html=1;align=center;verticalAlign=middle;resizable=0;points=[];autosize=1;strokeColor=none;fillColor=none;" parent="6MGJ6JV7ijIOS6ycfr8U-1" vertex="1">
                    <mxGeometry x="480" y="420" width="40" height="30" as="geometry"/>
                </mxCell>
                <mxCell id="6MGJ6JV7ijIOS6ycfr8U-21" value="温度・湿度" style="swimlane;fontStyle=0;childLayout=stackLayout;horizontal=1;startSize=30;horizontalStack=0;resizeParent=1;resizeParentMax=0;resizeLast=0;collapsible=1;marginBottom=0;" parent="6MGJ6JV7ijIOS6ycfr8U-1" vertex="1">
                    <mxGeometry x="590" y="270" width="140" height="180" as="geometry">
                        <mxRectangle x="510" y="375" width="60" height="30" as="alternateBounds"/>
                    </mxGeometry>
                </mxCell>
                <mxCell id="6MGJ6JV7ijIOS6ycfr8U-22" value="*温度_湿度ID" style="text;strokeColor=none;fillColor=none;align=left;verticalAlign=middle;spacingLeft=4;spacingRight=4;overflow=hidden;points=[[0,0.5],[1,0.5]];portConstraint=eastwest;rotatable=0;" parent="6MGJ6JV7ijIOS6ycfr8U-21" vertex="1">
                    <mxGeometry y="30" width="140" height="30" as="geometry"/>
                </mxCell>
                <mxCell id="6MGJ6JV7ijIOS6ycfr8U-23" value="農耕地ID" style="text;strokeColor=none;fillColor=none;align=left;verticalAlign=middle;spacingLeft=4;spacingRight=4;overflow=hidden;points=[[0,0.5],[1,0.5]];portConstraint=eastwest;rotatable=0;" parent="6MGJ6JV7ijIOS6ycfr8U-21" vertex="1">
                    <mxGeometry y="60" width="140" height="30" as="geometry"/>
                </mxCell>
                <mxCell id="6MGJ6JV7ijIOS6ycfr8U-24" value="日付" style="text;strokeColor=none;fillColor=none;align=left;verticalAlign=middle;spacingLeft=4;spacingRight=4;overflow=hidden;points=[[0,0.5],[1,0.5]];portConstraint=eastwest;rotatable=0;" parent="6MGJ6JV7ijIOS6ycfr8U-21" vertex="1">
                    <mxGeometry y="90" width="140" height="30" as="geometry"/>
                </mxCell>
                <mxCell id="6MGJ6JV7ijIOS6ycfr8U-25" value="湿度データ" style="text;strokeColor=none;fillColor=none;align=left;verticalAlign=middle;spacingLeft=4;spacingRight=4;overflow=hidden;points=[[0,0.5],[1,0.5]];portConstraint=eastwest;rotatable=0;" parent="6MGJ6JV7ijIOS6ycfr8U-21" vertex="1">
                    <mxGeometry y="120" width="140" height="30" as="geometry"/>
                </mxCell>
                <mxCell id="6MGJ6JV7ijIOS6ycfr8U-26" value="温度データ" style="text;strokeColor=none;fillColor=none;align=left;verticalAlign=middle;spacingLeft=4;spacingRight=4;overflow=hidden;points=[[0,0.5],[1,0.5]];portConstraint=eastwest;rotatable=0;" parent="6MGJ6JV7ijIOS6ycfr8U-21" vertex="1">
                    <mxGeometry y="150" width="140" height="30" as="geometry"/>
                </mxCell>
                <mxCell id="6MGJ6JV7ijIOS6ycfr8U-27" style="edgeStyle=orthogonalEdgeStyle;rounded=0;orthogonalLoop=1;jettySize=auto;html=1;endArrow=ERoneToMany;endFill=0;startArrow=ERzeroToOne;startFill=0;" parent="6MGJ6JV7ijIOS6ycfr8U-1" source="6MGJ6JV7ijIOS6ycfr8U-8" target="6MGJ6JV7ijIOS6ycfr8U-21" edge="1">
                    <mxGeometry relative="1" as="geometry">
                        <mxPoint x="424" y="430" as="sourcePoint"/>
                        <mxPoint x="540.0000000000002" y="430" as="targetPoint"/>
                        <Array as="points">
                            <mxPoint x="500" y="390"/>
                            <mxPoint x="500" y="390"/>
                        </Array>
                    </mxGeometry>
                </mxCell>
                <mxCell id="6MGJ6JV7ijIOS6ycfr8U-28" value="未収穫" style="swimlane;fontStyle=0;childLayout=stackLayout;horizontal=1;startSize=30;horizontalStack=0;resizeParent=1;resizeParentMax=0;resizeLast=0;collapsible=1;marginBottom=0;" parent="6MGJ6JV7ijIOS6ycfr8U-1" vertex="1">
                    <mxGeometry x="600" y="-45" width="140" height="180" as="geometry">
                        <mxRectangle x="510" y="375" width="60" height="30" as="alternateBounds"/>
                    </mxGeometry>
                </mxCell>
                <mxCell id="6MGJ6JV7ijIOS6ycfr8U-29" value="*未収穫ID" style="text;strokeColor=none;fillColor=none;align=left;verticalAlign=middle;spacingLeft=4;spacingRight=4;overflow=hidden;points=[[0,0.5],[1,0.5]];portConstraint=eastwest;rotatable=0;" parent="6MGJ6JV7ijIOS6ycfr8U-28" vertex="1">
                    <mxGeometry y="30" width="140" height="30" as="geometry"/>
                </mxCell>
                <mxCell id="6MGJ6JV7ijIOS6ycfr8U-30" value="*機械ID" style="text;strokeColor=none;fillColor=none;align=left;verticalAlign=middle;spacingLeft=4;spacingRight=4;overflow=hidden;points=[[0,0.5],[1,0.5]];portConstraint=eastwest;rotatable=0;" parent="6MGJ6JV7ijIOS6ycfr8U-28" vertex="1">
                    <mxGeometry y="60" width="140" height="30" as="geometry"/>
                </mxCell>
                <mxCell id="6MGJ6JV7ijIOS6ycfr8U-31" value="収穫日付" style="text;strokeColor=none;fillColor=none;align=left;verticalAlign=middle;spacingLeft=4;spacingRight=4;overflow=hidden;points=[[0,0.5],[1,0.5]];portConstraint=eastwest;rotatable=0;" parent="6MGJ6JV7ijIOS6ycfr8U-28" vertex="1">
                    <mxGeometry y="90" width="140" height="30" as="geometry"/>
                </mxCell>
                <mxCell id="CTIrRIZIcrFRATEF7ok7-8" value="未収穫数" style="text;strokeColor=none;fillColor=none;align=left;verticalAlign=middle;spacingLeft=4;spacingRight=4;overflow=hidden;points=[[0,0.5],[1,0.5]];portConstraint=eastwest;rotatable=0;" vertex="1" parent="6MGJ6JV7ijIOS6ycfr8U-28">
                    <mxGeometry y="120" width="140" height="30" as="geometry"/>
                </mxCell>
                <mxCell id="6MGJ6JV7ijIOS6ycfr8U-32" value="写真URL" style="text;strokeColor=none;fillColor=none;align=left;verticalAlign=middle;spacingLeft=4;spacingRight=4;overflow=hidden;points=[[0,0.5],[1,0.5]];portConstraint=eastwest;rotatable=0;" parent="6MGJ6JV7ijIOS6ycfr8U-28" vertex="1">
                    <mxGeometry y="150" width="140" height="30" as="geometry"/>
                </mxCell>
                <mxCell id="6MGJ6JV7ijIOS6ycfr8U-33" value="農作物" style="swimlane;fontStyle=0;childLayout=stackLayout;horizontal=1;startSize=30;horizontalStack=0;resizeParent=1;resizeParentMax=0;resizeLast=0;collapsible=1;marginBottom=0;" parent="6MGJ6JV7ijIOS6ycfr8U-1" vertex="1">
                    <mxGeometry x="274" width="140" height="90" as="geometry">
                        <mxRectangle x="510" y="375" width="60" height="30" as="alternateBounds"/>
                    </mxGeometry>
                </mxCell>
                <mxCell id="6MGJ6JV7ijIOS6ycfr8U-34" value="*農作物ID" style="text;strokeColor=none;fillColor=none;align=left;verticalAlign=middle;spacingLeft=4;spacingRight=4;overflow=hidden;points=[[0,0.5],[1,0.5]];portConstraint=eastwest;rotatable=0;" parent="6MGJ6JV7ijIOS6ycfr8U-33" vertex="1">
                    <mxGeometry y="30" width="140" height="30" as="geometry"/>
                </mxCell>
                <mxCell id="6MGJ6JV7ijIOS6ycfr8U-35" value="作物名" style="text;strokeColor=none;fillColor=none;align=left;verticalAlign=middle;spacingLeft=4;spacingRight=4;overflow=hidden;points=[[0,0.5],[1,0.5]];portConstraint=eastwest;rotatable=0;" parent="6MGJ6JV7ijIOS6ycfr8U-33" vertex="1">
                    <mxGeometry y="60" width="140" height="30" as="geometry"/>
                </mxCell>
                <mxCell id="6MGJ6JV7ijIOS6ycfr8U-36" value="機械" style="swimlane;fontStyle=0;childLayout=stackLayout;horizontal=1;startSize=30;horizontalStack=0;resizeParent=1;resizeParentMax=0;resizeLast=0;collapsible=1;marginBottom=0;" parent="6MGJ6JV7ijIOS6ycfr8U-1" vertex="1">
                    <mxGeometry x="274" y="-215" width="140" height="120" as="geometry">
                        <mxRectangle x="510" y="375" width="60" height="30" as="alternateBounds"/>
                    </mxGeometry>
                </mxCell>
                <mxCell id="6MGJ6JV7ijIOS6ycfr8U-37" value="*機械ID" style="text;strokeColor=none;fillColor=none;align=left;verticalAlign=middle;spacingLeft=4;spacingRight=4;overflow=hidden;points=[[0,0.5],[1,0.5]];portConstraint=eastwest;rotatable=0;" parent="6MGJ6JV7ijIOS6ycfr8U-36" vertex="1">
                    <mxGeometry y="30" width="140" height="30" as="geometry"/>
                </mxCell>
                <mxCell id="6MGJ6JV7ijIOS6ycfr8U-38" value="農耕地ID" style="text;strokeColor=none;fillColor=none;align=left;verticalAlign=middle;spacingLeft=4;spacingRight=4;overflow=hidden;points=[[0,0.5],[1,0.5]];portConstraint=eastwest;rotatable=0;" parent="6MGJ6JV7ijIOS6ycfr8U-36" vertex="1">
                    <mxGeometry y="60" width="140" height="30" as="geometry"/>
                </mxCell>
                <mxCell id="6MGJ6JV7ijIOS6ycfr8U-39" value="機械番号" style="text;strokeColor=none;fillColor=none;align=left;verticalAlign=middle;spacingLeft=4;spacingRight=4;overflow=hidden;points=[[0,0.5],[1,0.5]];portConstraint=eastwest;rotatable=0;" parent="6MGJ6JV7ijIOS6ycfr8U-36" vertex="1">
                    <mxGeometry y="90" width="140" height="30" as="geometry"/>
                </mxCell>
                <mxCell id="6MGJ6JV7ijIOS6ycfr8U-40" style="edgeStyle=orthogonalEdgeStyle;rounded=0;orthogonalLoop=1;jettySize=auto;html=1;endArrow=ERoneToMany;endFill=0;startArrow=ERone;startFill=0;" parent="6MGJ6JV7ijIOS6ycfr8U-1" source="6MGJ6JV7ijIOS6ycfr8U-11" target="6MGJ6JV7ijIOS6ycfr8U-36" edge="1">
                    <mxGeometry relative="1" as="geometry">
                        <mxPoint x="350" y="120" as="sourcePoint"/>
                        <mxPoint x="540.0000000000002" y="400" as="targetPoint"/>
                        <Array as="points">
                            <mxPoint x="710" y="-60"/>
                        </Array>
                    </mxGeometry>
                </mxCell>
                <mxCell id="6MGJ6JV7ijIOS6ycfr8U-41" style="edgeStyle=orthogonalEdgeStyle;rounded=0;orthogonalLoop=1;jettySize=auto;html=1;endArrow=ERone;endFill=0;startArrow=ERzeroToMany;startFill=0;" parent="6MGJ6JV7ijIOS6ycfr8U-1" source="6MGJ6JV7ijIOS6ycfr8U-36" target="6MGJ6JV7ijIOS6ycfr8U-28" edge="1">
                    <mxGeometry relative="1" as="geometry">
                        <mxPoint x="390.04347826086996" y="445" as="sourcePoint"/>
                        <mxPoint x="540.0000000000002" y="620" as="targetPoint"/>
                        <Array as="points">
                            <mxPoint x="450" y="-120"/>
                            <mxPoint x="450" y="40"/>
                        </Array>
                    </mxGeometry>
                </mxCell>
                <mxCell id="6MGJ6JV7ijIOS6ycfr8U-42" style="edgeStyle=orthogonalEdgeStyle;rounded=0;orthogonalLoop=1;jettySize=auto;html=1;endArrow=ERzeroToMany;endFill=0;startArrow=ERone;startFill=0;" parent="6MGJ6JV7ijIOS6ycfr8U-1" source="6MGJ6JV7ijIOS6ycfr8U-33" target="CTIrRIZIcrFRATEF7ok7-1" edge="1">
                    <mxGeometry relative="1" as="geometry">
                        <mxPoint x="339.9565217391307" y="740" as="sourcePoint"/>
                        <mxPoint x="339.9565217391307" y="445" as="targetPoint"/>
                        <Array as="points">
                            <mxPoint x="344" y="180"/>
                            <mxPoint x="344" y="180"/>
                        </Array>
                    </mxGeometry>
                </mxCell>
                <mxCell id="6MGJ6JV7ijIOS6ycfr8U-43" value="所有" style="swimlane;fontStyle=0;childLayout=stackLayout;horizontal=1;startSize=30;horizontalStack=0;resizeParent=1;resizeParentMax=0;resizeLast=0;collapsible=1;marginBottom=0;" parent="6MGJ6JV7ijIOS6ycfr8U-1" vertex="1">
                    <mxGeometry x="80" y="345" width="140" height="90" as="geometry"/>
                </mxCell>
                <mxCell id="6MGJ6JV7ijIOS6ycfr8U-44" value="＊農作者ID" style="text;strokeColor=none;fillColor=none;align=left;verticalAlign=middle;spacingLeft=4;spacingRight=4;overflow=hidden;points=[[0,0.5],[1,0.5]];portConstraint=eastwest;rotatable=0;" parent="6MGJ6JV7ijIOS6ycfr8U-43" vertex="1">
                    <mxGeometry y="30" width="140" height="30" as="geometry"/>
                </mxCell>
                <mxCell id="6MGJ6JV7ijIOS6ycfr8U-45" value="＊農耕地ID" style="text;strokeColor=none;fillColor=none;align=left;verticalAlign=middle;spacingLeft=4;spacingRight=4;overflow=hidden;points=[[0,0.5],[1,0.5]];portConstraint=eastwest;rotatable=0;" parent="6MGJ6JV7ijIOS6ycfr8U-43" vertex="1">
                    <mxGeometry y="60" width="140" height="30" as="geometry"/>
                </mxCell>
                <mxCell id="6MGJ6JV7ijIOS6ycfr8U-48" value="収穫テーブルが移動" style="shape=callout;whiteSpace=wrap;html=1;perimeter=calloutPerimeter;size=10;position=0.5;" parent="6MGJ6JV7ijIOS6ycfr8U-1" vertex="1">
                    <mxGeometry x="60" y="570" width="95" height="50" as="geometry"/>
                </mxCell>
                <mxCell id="6MGJ6JV7ijIOS6ycfr8U-49" value="収穫IDがいらなくなる？" style="shape=callout;whiteSpace=wrap;html=1;perimeter=calloutPerimeter;size=15;position=0.46;" parent="6MGJ6JV7ijIOS6ycfr8U-1" vertex="1">
                    <mxGeometry x="622.5" y="-350" width="95" height="80" as="geometry"/>
                </mxCell>
                <mxCell id="xvRCfw0vevKAqugcrRw_-1" style="edgeStyle=orthogonalEdgeStyle;rounded=0;orthogonalLoop=1;jettySize=auto;html=1;endArrow=ERoneToMany;endFill=0;startArrow=ERone;startFill=0;" parent="6MGJ6JV7ijIOS6ycfr8U-1" source="6MGJ6JV7ijIOS6ycfr8U-9" target="6MGJ6JV7ijIOS6ycfr8U-43" edge="1">
                    <mxGeometry relative="1" as="geometry"/>
                </mxCell>
                <mxCell id="CTIrRIZIcrFRATEF7ok7-1" value="植付" style="swimlane;fontStyle=0;childLayout=stackLayout;horizontal=1;startSize=30;horizontalStack=0;resizeParent=1;resizeParentMax=0;resizeLast=0;collapsible=1;marginBottom=0;" vertex="1" parent="6MGJ6JV7ijIOS6ycfr8U-1">
                    <mxGeometry x="274" y="180" width="140" height="120" as="geometry"/>
                </mxCell>
                <mxCell id="CTIrRIZIcrFRATEF7ok7-2" value="＊農作物ID" style="text;strokeColor=none;fillColor=none;align=left;verticalAlign=middle;spacingLeft=4;spacingRight=4;overflow=hidden;points=[[0,0.5],[1,0.5]];portConstraint=eastwest;rotatable=0;" vertex="1" parent="CTIrRIZIcrFRATEF7ok7-1">
                    <mxGeometry y="30" width="140" height="30" as="geometry"/>
                </mxCell>
                <mxCell id="CTIrRIZIcrFRATEF7ok7-9" value="＊農耕地ID" style="text;strokeColor=none;fillColor=none;align=left;verticalAlign=middle;spacingLeft=4;spacingRight=4;overflow=hidden;points=[[0,0.5],[1,0.5]];portConstraint=eastwest;rotatable=0;" vertex="1" parent="CTIrRIZIcrFRATEF7ok7-1">
                    <mxGeometry y="60" width="140" height="30" as="geometry"/>
                </mxCell>
                <mxCell id="CTIrRIZIcrFRATEF7ok7-3" value="開始日付" style="text;strokeColor=none;fillColor=none;align=left;verticalAlign=middle;spacingLeft=4;spacingRight=4;overflow=hidden;points=[[0,0.5],[1,0.5]];portConstraint=eastwest;rotatable=0;" vertex="1" parent="CTIrRIZIcrFRATEF7ok7-1">
                    <mxGeometry y="90" width="140" height="30" as="geometry"/>
                </mxCell>
                <mxCell id="CTIrRIZIcrFRATEF7ok7-4" style="edgeStyle=orthogonalEdgeStyle;rounded=0;orthogonalLoop=1;jettySize=auto;html=1;startArrow=ERone;startFill=0;endArrow=ERzeroToMany;endFill=0;" edge="1" parent="6MGJ6JV7ijIOS6ycfr8U-1" source="6MGJ6JV7ijIOS6ycfr8U-8" target="CTIrRIZIcrFRATEF7ok7-1">
                    <mxGeometry relative="1" as="geometry">
                        <Array as="points">
                            <mxPoint x="344" y="300"/>
                            <mxPoint x="344" y="300"/>
                        </Array>
                    </mxGeometry>
                </mxCell>
            </root>
        </mxGraphModel>
    </diagram>
    <diagram name="Ver0.31" id="NzdRoprjh_9VEmQZUfQ4">
        <mxGraphModel dx="2158" dy="1597" grid="1" gridSize="10" guides="1" tooltips="1" connect="1" arrows="1" fold="1" page="1" pageScale="1" pageWidth="827" pageHeight="1169" math="0" shadow="0">
            <root>
                <mxCell id="XhddECtok8xU8hurlZ1I-0"/>
                <mxCell id="XhddECtok8xU8hurlZ1I-1" parent="XhddECtok8xU8hurlZ1I-0"/>
                <mxCell id="XhddECtok8xU8hurlZ1I-2" style="edgeStyle=orthogonalEdgeStyle;rounded=0;orthogonalLoop=1;jettySize=auto;html=1;endArrow=ERoneToMany;endFill=0;startArrow=ERone;startFill=0;" parent="XhddECtok8xU8hurlZ1I-1" source="XhddECtok8xU8hurlZ1I-3" target="XhddECtok8xU8hurlZ1I-43" edge="1">
                    <mxGeometry relative="1" as="geometry">
                        <mxPoint x="110" y="390" as="targetPoint"/>
                    </mxGeometry>
                </mxCell>
                <mxCell id="XhddECtok8xU8hurlZ1I-3" value="農作者" style="swimlane;fontStyle=0;childLayout=stackLayout;horizontal=1;startSize=30;horizontalStack=0;resizeParent=1;resizeParentMax=0;resizeLast=0;collapsible=1;marginBottom=0;" parent="XhddECtok8xU8hurlZ1I-1" vertex="1">
                    <mxGeometry x="-120" y="330" width="140" height="120" as="geometry"/>
                </mxCell>
                <mxCell id="XhddECtok8xU8hurlZ1I-4" value="＊農作者ID" style="text;strokeColor=none;fillColor=none;align=left;verticalAlign=middle;spacingLeft=4;spacingRight=4;overflow=hidden;points=[[0,0.5],[1,0.5]];portConstraint=eastwest;rotatable=0;" parent="XhddECtok8xU8hurlZ1I-3" vertex="1">
                    <mxGeometry y="30" width="140" height="30" as="geometry"/>
                </mxCell>
                <mxCell id="XhddECtok8xU8hurlZ1I-5" value="農作者名" style="text;strokeColor=none;fillColor=none;align=left;verticalAlign=middle;spacingLeft=4;spacingRight=4;overflow=hidden;points=[[0,0.5],[1,0.5]];portConstraint=eastwest;rotatable=0;" parent="XhddECtok8xU8hurlZ1I-3" vertex="1">
                    <mxGeometry y="60" width="140" height="30" as="geometry"/>
                </mxCell>
                <mxCell id="XhddECtok8xU8hurlZ1I-6" value="農耕地ID" style="text;strokeColor=none;fillColor=none;align=left;verticalAlign=middle;spacingLeft=4;spacingRight=4;overflow=hidden;points=[[0,0.5],[1,0.5]];portConstraint=eastwest;rotatable=0;" parent="XhddECtok8xU8hurlZ1I-3" vertex="1">
                    <mxGeometry y="90" width="140" height="30" as="geometry"/>
                </mxCell>
                <mxCell id="XhddECtok8xU8hurlZ1I-7" style="edgeStyle=orthogonalEdgeStyle;rounded=0;orthogonalLoop=1;jettySize=auto;html=1;startArrow=ERone;startFill=0;endArrow=ERzeroToMany;endFill=0;" parent="XhddECtok8xU8hurlZ1I-1" source="XhddECtok8xU8hurlZ1I-33" target="XhddECtok8xU8hurlZ1I-36" edge="1">
                    <mxGeometry relative="1" as="geometry">
                        <mxPoint x="344" y="150" as="sourcePoint"/>
                    </mxGeometry>
                </mxCell>
                <mxCell id="XhddECtok8xU8hurlZ1I-8" value="農耕地" style="swimlane;fontStyle=0;childLayout=stackLayout;horizontal=1;startSize=30;horizontalStack=0;resizeParent=1;resizeParentMax=0;resizeLast=0;collapsible=1;marginBottom=0;" parent="XhddECtok8xU8hurlZ1I-1" vertex="1">
                    <mxGeometry x="274" y="345" width="140" height="90" as="geometry"/>
                </mxCell>
                <mxCell id="XhddECtok8xU8hurlZ1I-9" value="＊農耕地ID" style="text;strokeColor=none;fillColor=none;align=left;verticalAlign=middle;spacingLeft=4;spacingRight=4;overflow=hidden;points=[[0,0.5],[1,0.5]];portConstraint=eastwest;rotatable=0;" parent="XhddECtok8xU8hurlZ1I-8" vertex="1">
                    <mxGeometry y="30" width="140" height="30" as="geometry"/>
                </mxCell>
                <mxCell id="XhddECtok8xU8hurlZ1I-10" value="農耕地名" style="text;strokeColor=none;fillColor=none;align=left;verticalAlign=middle;spacingLeft=4;spacingRight=4;overflow=hidden;points=[[0,0.5],[1,0.5]];portConstraint=eastwest;rotatable=0;" parent="XhddECtok8xU8hurlZ1I-8" vertex="1">
                    <mxGeometry y="60" width="140" height="30" as="geometry"/>
                </mxCell>
                <mxCell id="EEm19mTDCfVg3El5hA5p-1" style="edgeStyle=orthogonalEdgeStyle;rounded=0;orthogonalLoop=1;jettySize=auto;html=1;startArrow=ERone;startFill=0;endArrow=ERzeroToMany;endFill=0;" parent="XhddECtok8xU8hurlZ1I-1" source="XhddECtok8xU8hurlZ1I-11" target="XhddECtok8xU8hurlZ1I-33" edge="1">
                    <mxGeometry relative="1" as="geometry">
                        <Array as="points">
                            <mxPoint x="190" y="50"/>
                            <mxPoint x="190" y="50"/>
                        </Array>
                    </mxGeometry>
                </mxCell>
                <mxCell id="XhddECtok8xU8hurlZ1I-11" value="収穫" style="swimlane;fontStyle=0;childLayout=stackLayout;horizontal=1;startSize=30;horizontalStack=0;resizeParent=1;resizeParentMax=0;resizeLast=0;collapsible=1;marginBottom=0;" parent="XhddECtok8xU8hurlZ1I-1" vertex="1">
                    <mxGeometry x="-10" y="-170" width="140" height="240" as="geometry">
                        <mxRectangle x="510" y="375" width="60" height="30" as="alternateBounds"/>
                    </mxGeometry>
                </mxCell>
                <mxCell id="XhddECtok8xU8hurlZ1I-12" value="*収穫ID" style="text;strokeColor=none;fillColor=none;align=left;verticalAlign=middle;spacingLeft=4;spacingRight=4;overflow=hidden;points=[[0,0.5],[1,0.5]];portConstraint=eastwest;rotatable=0;" parent="XhddECtok8xU8hurlZ1I-11" vertex="1">
                    <mxGeometry y="30" width="140" height="30" as="geometry"/>
                </mxCell>
                <mxCell id="XhddECtok8xU8hurlZ1I-13" value="*機械ID" style="text;strokeColor=none;fillColor=none;align=left;verticalAlign=middle;spacingLeft=4;spacingRight=4;overflow=hidden;points=[[0,0.5],[1,0.5]];portConstraint=eastwest;rotatable=0;" parent="XhddECtok8xU8hurlZ1I-11" vertex="1">
                    <mxGeometry y="60" width="140" height="30" as="geometry"/>
                </mxCell>
                <mxCell id="EEm19mTDCfVg3El5hA5p-3" value="*農作物ID" style="text;strokeColor=none;fillColor=none;align=left;verticalAlign=middle;spacingLeft=4;spacingRight=4;overflow=hidden;points=[[0,0.5],[1,0.5]];portConstraint=eastwest;rotatable=0;" parent="XhddECtok8xU8hurlZ1I-11" vertex="1">
                    <mxGeometry y="90" width="140" height="30" as="geometry"/>
                </mxCell>
                <mxCell id="XhddECtok8xU8hurlZ1I-14" value="収穫日付" style="text;strokeColor=none;fillColor=none;align=left;verticalAlign=middle;spacingLeft=4;spacingRight=4;overflow=hidden;points=[[0,0.5],[1,0.5]];portConstraint=eastwest;rotatable=0;" parent="XhddECtok8xU8hurlZ1I-11" vertex="1">
                    <mxGeometry y="120" width="140" height="30" as="geometry"/>
                </mxCell>
                <mxCell id="EEm19mTDCfVg3El5hA5p-6" value="数" style="text;strokeColor=none;fillColor=none;align=left;verticalAlign=middle;spacingLeft=4;spacingRight=4;overflow=hidden;points=[[0,0.5],[1,0.5]];portConstraint=eastwest;rotatable=0;" parent="XhddECtok8xU8hurlZ1I-11" vertex="1">
                    <mxGeometry y="150" width="140" height="30" as="geometry"/>
                </mxCell>
                <mxCell id="XhddECtok8xU8hurlZ1I-16" value="写真ID" style="text;strokeColor=none;fillColor=none;align=left;verticalAlign=middle;spacingLeft=4;spacingRight=4;overflow=hidden;points=[[0,0.5],[1,0.5]];portConstraint=eastwest;rotatable=0;" parent="XhddECtok8xU8hurlZ1I-11" vertex="1">
                    <mxGeometry y="180" width="140" height="30" as="geometry"/>
                </mxCell>
                <mxCell id="EEm19mTDCfVg3El5hA5p-2" value="状態ID" style="text;strokeColor=none;fillColor=none;align=left;verticalAlign=middle;spacingLeft=4;spacingRight=4;overflow=hidden;points=[[0,0.5],[1,0.5]];portConstraint=eastwest;rotatable=0;" parent="XhddECtok8xU8hurlZ1I-11" vertex="1">
                    <mxGeometry y="210" width="140" height="30" as="geometry"/>
                </mxCell>
                <mxCell id="XhddECtok8xU8hurlZ1I-20" value="温度・湿度" style="swimlane;fontStyle=0;childLayout=stackLayout;horizontal=1;startSize=30;horizontalStack=0;resizeParent=1;resizeParentMax=0;resizeLast=0;collapsible=1;marginBottom=0;" parent="XhddECtok8xU8hurlZ1I-1" vertex="1">
                    <mxGeometry x="590" y="270" width="140" height="180" as="geometry">
                        <mxRectangle x="510" y="375" width="60" height="30" as="alternateBounds"/>
                    </mxGeometry>
                </mxCell>
                <mxCell id="XhddECtok8xU8hurlZ1I-21" value="*温度_湿度ID" style="text;strokeColor=none;fillColor=none;align=left;verticalAlign=middle;spacingLeft=4;spacingRight=4;overflow=hidden;points=[[0,0.5],[1,0.5]];portConstraint=eastwest;rotatable=0;" parent="XhddECtok8xU8hurlZ1I-20" vertex="1">
                    <mxGeometry y="30" width="140" height="30" as="geometry"/>
                </mxCell>
                <mxCell id="XhddECtok8xU8hurlZ1I-22" value="農耕地ID" style="text;strokeColor=none;fillColor=none;align=left;verticalAlign=middle;spacingLeft=4;spacingRight=4;overflow=hidden;points=[[0,0.5],[1,0.5]];portConstraint=eastwest;rotatable=0;" parent="XhddECtok8xU8hurlZ1I-20" vertex="1">
                    <mxGeometry y="60" width="140" height="30" as="geometry"/>
                </mxCell>
                <mxCell id="XhddECtok8xU8hurlZ1I-23" value="日付" style="text;strokeColor=none;fillColor=none;align=left;verticalAlign=middle;spacingLeft=4;spacingRight=4;overflow=hidden;points=[[0,0.5],[1,0.5]];portConstraint=eastwest;rotatable=0;" parent="XhddECtok8xU8hurlZ1I-20" vertex="1">
                    <mxGeometry y="90" width="140" height="30" as="geometry"/>
                </mxCell>
                <mxCell id="XhddECtok8xU8hurlZ1I-24" value="湿度データ" style="text;strokeColor=none;fillColor=none;align=left;verticalAlign=middle;spacingLeft=4;spacingRight=4;overflow=hidden;points=[[0,0.5],[1,0.5]];portConstraint=eastwest;rotatable=0;" parent="XhddECtok8xU8hurlZ1I-20" vertex="1">
                    <mxGeometry y="120" width="140" height="30" as="geometry"/>
                </mxCell>
                <mxCell id="XhddECtok8xU8hurlZ1I-25" value="温度データ" style="text;strokeColor=none;fillColor=none;align=left;verticalAlign=middle;spacingLeft=4;spacingRight=4;overflow=hidden;points=[[0,0.5],[1,0.5]];portConstraint=eastwest;rotatable=0;" parent="XhddECtok8xU8hurlZ1I-20" vertex="1">
                    <mxGeometry y="150" width="140" height="30" as="geometry"/>
                </mxCell>
                <mxCell id="XhddECtok8xU8hurlZ1I-26" style="edgeStyle=orthogonalEdgeStyle;rounded=0;orthogonalLoop=1;jettySize=auto;html=1;endArrow=ERoneToMany;endFill=0;startArrow=ERzeroToOne;startFill=0;" parent="XhddECtok8xU8hurlZ1I-1" source="XhddECtok8xU8hurlZ1I-8" target="XhddECtok8xU8hurlZ1I-20" edge="1">
                    <mxGeometry relative="1" as="geometry">
                        <mxPoint x="424" y="430" as="sourcePoint"/>
                        <mxPoint x="540.0000000000002" y="430" as="targetPoint"/>
                        <Array as="points">
                            <mxPoint x="500" y="390"/>
                            <mxPoint x="500" y="390"/>
                        </Array>
                    </mxGeometry>
                </mxCell>
                <mxCell id="XhddECtok8xU8hurlZ1I-33" value="農作物" style="swimlane;fontStyle=0;childLayout=stackLayout;horizontal=1;startSize=30;horizontalStack=0;resizeParent=1;resizeParentMax=0;resizeLast=0;collapsible=1;marginBottom=0;" parent="XhddECtok8xU8hurlZ1I-1" vertex="1">
                    <mxGeometry x="274" y="10" width="140" height="120" as="geometry">
                        <mxRectangle x="510" y="375" width="60" height="30" as="alternateBounds"/>
                    </mxGeometry>
                </mxCell>
                <mxCell id="XhddECtok8xU8hurlZ1I-34" value="*農作物ID" style="text;strokeColor=none;fillColor=none;align=left;verticalAlign=middle;spacingLeft=4;spacingRight=4;overflow=hidden;points=[[0,0.5],[1,0.5]];portConstraint=eastwest;rotatable=0;" parent="XhddECtok8xU8hurlZ1I-33" vertex="1">
                    <mxGeometry y="30" width="140" height="30" as="geometry"/>
                </mxCell>
                <mxCell id="XhddECtok8xU8hurlZ1I-35" value="作物名" style="text;strokeColor=none;fillColor=none;align=left;verticalAlign=middle;spacingLeft=4;spacingRight=4;overflow=hidden;points=[[0,0.5],[1,0.5]];portConstraint=eastwest;rotatable=0;" parent="XhddECtok8xU8hurlZ1I-33" vertex="1">
                    <mxGeometry y="60" width="140" height="30" as="geometry"/>
                </mxCell>
                <mxCell id="EEm19mTDCfVg3El5hA5p-5" value="品種名" style="text;strokeColor=none;fillColor=none;align=left;verticalAlign=middle;spacingLeft=4;spacingRight=4;overflow=hidden;points=[[0,0.5],[1,0.5]];portConstraint=eastwest;rotatable=0;" parent="XhddECtok8xU8hurlZ1I-33" vertex="1">
                    <mxGeometry y="90" width="140" height="30" as="geometry"/>
                </mxCell>
                <mxCell id="EEm19mTDCfVg3El5hA5p-19" style="edgeStyle=orthogonalEdgeStyle;rounded=0;orthogonalLoop=1;jettySize=auto;html=1;entryX=0.5;entryY=0;entryDx=0;entryDy=0;startArrow=ERone;startFill=0;endArrow=ERzeroToMany;endFill=0;" parent="XhddECtok8xU8hurlZ1I-1" source="XhddECtok8xU8hurlZ1I-36" target="EEm19mTDCfVg3El5hA5p-7" edge="1">
                    <mxGeometry relative="1" as="geometry">
                        <Array as="points">
                            <mxPoint x="-180" y="-190"/>
                        </Array>
                    </mxGeometry>
                </mxCell>
                <mxCell id="XhddECtok8xU8hurlZ1I-36" value="機械" style="swimlane;fontStyle=0;childLayout=stackLayout;horizontal=1;startSize=30;horizontalStack=0;resizeParent=1;resizeParentMax=0;resizeLast=0;collapsible=1;marginBottom=0;" parent="XhddECtok8xU8hurlZ1I-1" vertex="1">
                    <mxGeometry x="274" y="-215" width="140" height="120" as="geometry">
                        <mxRectangle x="510" y="375" width="60" height="30" as="alternateBounds"/>
                    </mxGeometry>
                </mxCell>
                <mxCell id="XhddECtok8xU8hurlZ1I-37" value="*機械ID" style="text;strokeColor=none;fillColor=none;align=left;verticalAlign=middle;spacingLeft=4;spacingRight=4;overflow=hidden;points=[[0,0.5],[1,0.5]];portConstraint=eastwest;rotatable=0;" parent="XhddECtok8xU8hurlZ1I-36" vertex="1">
                    <mxGeometry y="30" width="140" height="30" as="geometry"/>
                </mxCell>
                <mxCell id="XhddECtok8xU8hurlZ1I-38" value="農耕地ID" style="text;strokeColor=none;fillColor=none;align=left;verticalAlign=middle;spacingLeft=4;spacingRight=4;overflow=hidden;points=[[0,0.5],[1,0.5]];portConstraint=eastwest;rotatable=0;" parent="XhddECtok8xU8hurlZ1I-36" vertex="1">
                    <mxGeometry y="60" width="140" height="30" as="geometry"/>
                </mxCell>
                <mxCell id="XhddECtok8xU8hurlZ1I-39" value="機械番号" style="text;strokeColor=none;fillColor=none;align=left;verticalAlign=middle;spacingLeft=4;spacingRight=4;overflow=hidden;points=[[0,0.5],[1,0.5]];portConstraint=eastwest;rotatable=0;" parent="XhddECtok8xU8hurlZ1I-36" vertex="1">
                    <mxGeometry y="90" width="140" height="30" as="geometry"/>
                </mxCell>
                <mxCell id="XhddECtok8xU8hurlZ1I-40" style="edgeStyle=orthogonalEdgeStyle;rounded=0;orthogonalLoop=1;jettySize=auto;html=1;endArrow=ERoneToMany;endFill=0;startArrow=ERone;startFill=0;" parent="XhddECtok8xU8hurlZ1I-1" source="XhddECtok8xU8hurlZ1I-11" target="XhddECtok8xU8hurlZ1I-36" edge="1">
                    <mxGeometry relative="1" as="geometry">
                        <mxPoint x="350" y="120" as="sourcePoint"/>
                        <mxPoint x="540.0000000000002" y="400" as="targetPoint"/>
                        <Array as="points">
                            <mxPoint x="140" y="-150"/>
                            <mxPoint x="140" y="-150"/>
                        </Array>
                    </mxGeometry>
                </mxCell>
                <mxCell id="XhddECtok8xU8hurlZ1I-42" style="edgeStyle=orthogonalEdgeStyle;rounded=0;orthogonalLoop=1;jettySize=auto;html=1;endArrow=ERzeroToMany;endFill=0;startArrow=ERone;startFill=0;" parent="XhddECtok8xU8hurlZ1I-1" source="XhddECtok8xU8hurlZ1I-33" target="XhddECtok8xU8hurlZ1I-49" edge="1">
                    <mxGeometry relative="1" as="geometry">
                        <mxPoint x="339.9565217391307" y="740" as="sourcePoint"/>
                        <mxPoint x="339.9565217391307" y="445" as="targetPoint"/>
                        <Array as="points">
                            <mxPoint x="344" y="180"/>
                            <mxPoint x="344" y="180"/>
                        </Array>
                    </mxGeometry>
                </mxCell>
                <mxCell id="XhddECtok8xU8hurlZ1I-43" value="所有" style="swimlane;fontStyle=0;childLayout=stackLayout;horizontal=1;startSize=30;horizontalStack=0;resizeParent=1;resizeParentMax=0;resizeLast=0;collapsible=1;marginBottom=0;" parent="XhddECtok8xU8hurlZ1I-1" vertex="1">
                    <mxGeometry x="80" y="345" width="140" height="90" as="geometry"/>
                </mxCell>
                <mxCell id="XhddECtok8xU8hurlZ1I-44" value="＊農作者ID" style="text;strokeColor=none;fillColor=none;align=left;verticalAlign=middle;spacingLeft=4;spacingRight=4;overflow=hidden;points=[[0,0.5],[1,0.5]];portConstraint=eastwest;rotatable=0;" parent="XhddECtok8xU8hurlZ1I-43" vertex="1">
                    <mxGeometry y="30" width="140" height="30" as="geometry"/>
                </mxCell>
                <mxCell id="XhddECtok8xU8hurlZ1I-45" value="＊農耕地ID" style="text;strokeColor=none;fillColor=none;align=left;verticalAlign=middle;spacingLeft=4;spacingRight=4;overflow=hidden;points=[[0,0.5],[1,0.5]];portConstraint=eastwest;rotatable=0;" parent="XhddECtok8xU8hurlZ1I-43" vertex="1">
                    <mxGeometry y="60" width="140" height="30" as="geometry"/>
                </mxCell>
                <mxCell id="XhddECtok8xU8hurlZ1I-46" value="収穫テーブルが移動" style="shape=callout;whiteSpace=wrap;html=1;perimeter=calloutPerimeter;size=10;position=0.5;" parent="XhddECtok8xU8hurlZ1I-1" vertex="1">
                    <mxGeometry x="60" y="570" width="95" height="50" as="geometry"/>
                </mxCell>
                <mxCell id="XhddECtok8xU8hurlZ1I-48" style="edgeStyle=orthogonalEdgeStyle;rounded=0;orthogonalLoop=1;jettySize=auto;html=1;endArrow=ERoneToMany;endFill=0;startArrow=ERone;startFill=0;" parent="XhddECtok8xU8hurlZ1I-1" source="XhddECtok8xU8hurlZ1I-9" target="XhddECtok8xU8hurlZ1I-43" edge="1">
                    <mxGeometry relative="1" as="geometry"/>
                </mxCell>
                <mxCell id="XhddECtok8xU8hurlZ1I-49" value="植付" style="swimlane;fontStyle=0;childLayout=stackLayout;horizontal=1;startSize=30;horizontalStack=0;resizeParent=1;resizeParentMax=0;resizeLast=0;collapsible=1;marginBottom=0;" parent="XhddECtok8xU8hurlZ1I-1" vertex="1">
                    <mxGeometry x="274" y="180" width="140" height="120" as="geometry"/>
                </mxCell>
                <mxCell id="XhddECtok8xU8hurlZ1I-50" value="＊農作物ID" style="text;strokeColor=none;fillColor=none;align=left;verticalAlign=middle;spacingLeft=4;spacingRight=4;overflow=hidden;points=[[0,0.5],[1,0.5]];portConstraint=eastwest;rotatable=0;" parent="XhddECtok8xU8hurlZ1I-49" vertex="1">
                    <mxGeometry y="30" width="140" height="30" as="geometry"/>
                </mxCell>
                <mxCell id="XhddECtok8xU8hurlZ1I-51" value="＊農耕地ID" style="text;strokeColor=none;fillColor=none;align=left;verticalAlign=middle;spacingLeft=4;spacingRight=4;overflow=hidden;points=[[0,0.5],[1,0.5]];portConstraint=eastwest;rotatable=0;" parent="XhddECtok8xU8hurlZ1I-49" vertex="1">
                    <mxGeometry y="60" width="140" height="30" as="geometry"/>
                </mxCell>
                <mxCell id="XhddECtok8xU8hurlZ1I-52" value="開始日付" style="text;strokeColor=none;fillColor=none;align=left;verticalAlign=middle;spacingLeft=4;spacingRight=4;overflow=hidden;points=[[0,0.5],[1,0.5]];portConstraint=eastwest;rotatable=0;" parent="XhddECtok8xU8hurlZ1I-49" vertex="1">
                    <mxGeometry y="90" width="140" height="30" as="geometry"/>
                </mxCell>
                <mxCell id="XhddECtok8xU8hurlZ1I-53" style="edgeStyle=orthogonalEdgeStyle;rounded=0;orthogonalLoop=1;jettySize=auto;html=1;startArrow=ERone;startFill=0;endArrow=ERzeroToMany;endFill=0;" parent="XhddECtok8xU8hurlZ1I-1" source="XhddECtok8xU8hurlZ1I-8" target="XhddECtok8xU8hurlZ1I-49" edge="1">
                    <mxGeometry relative="1" as="geometry">
                        <Array as="points">
                            <mxPoint x="344" y="300"/>
                            <mxPoint x="344" y="300"/>
                        </Array>
                    </mxGeometry>
                </mxCell>
                <mxCell id="EEm19mTDCfVg3El5hA5p-17" style="edgeStyle=orthogonalEdgeStyle;rounded=0;orthogonalLoop=1;jettySize=auto;html=1;startArrow=ERone;startFill=0;endArrow=ERzeroToMany;endFill=0;" parent="XhddECtok8xU8hurlZ1I-1" source="XhddECtok8xU8hurlZ1I-11" target="EEm19mTDCfVg3El5hA5p-7" edge="1">
                    <mxGeometry relative="1" as="geometry"/>
                </mxCell>
                <mxCell id="EEm19mTDCfVg3El5hA5p-7" value="写真" style="swimlane;fontStyle=0;childLayout=stackLayout;horizontal=1;startSize=30;horizontalStack=0;resizeParent=1;resizeParentMax=0;resizeLast=0;collapsible=1;marginBottom=0;" parent="XhddECtok8xU8hurlZ1I-1" vertex="1">
                    <mxGeometry x="-250" y="-125" width="140" height="150" as="geometry">
                        <mxRectangle x="510" y="375" width="60" height="30" as="alternateBounds"/>
                    </mxGeometry>
                </mxCell>
                <mxCell id="EEm19mTDCfVg3El5hA5p-11" value="*収穫日付" style="text;strokeColor=none;fillColor=none;align=left;verticalAlign=middle;spacingLeft=4;spacingRight=4;overflow=hidden;points=[[0,0.5],[1,0.5]];portConstraint=eastwest;rotatable=0;" parent="EEm19mTDCfVg3El5hA5p-7" vertex="1">
                    <mxGeometry y="30" width="140" height="30" as="geometry"/>
                </mxCell>
                <mxCell id="EEm19mTDCfVg3El5hA5p-15" value="*機械ID" style="text;strokeColor=none;fillColor=none;align=left;verticalAlign=middle;spacingLeft=4;spacingRight=4;overflow=hidden;points=[[0,0.5],[1,0.5]];portConstraint=eastwest;rotatable=0;" parent="EEm19mTDCfVg3El5hA5p-7" vertex="1">
                    <mxGeometry y="60" width="140" height="30" as="geometry"/>
                </mxCell>
                <mxCell id="EEm19mTDCfVg3El5hA5p-16" value="*収穫ID" style="text;strokeColor=none;fillColor=none;align=left;verticalAlign=middle;spacingLeft=4;spacingRight=4;overflow=hidden;points=[[0,0.5],[1,0.5]];portConstraint=eastwest;rotatable=0;" parent="EEm19mTDCfVg3El5hA5p-7" vertex="1">
                    <mxGeometry y="90" width="140" height="30" as="geometry"/>
                </mxCell>
                <mxCell id="EEm19mTDCfVg3El5hA5p-13" value="写真URL" style="text;strokeColor=none;fillColor=none;align=left;verticalAlign=middle;spacingLeft=4;spacingRight=4;overflow=hidden;points=[[0,0.5],[1,0.5]];portConstraint=eastwest;rotatable=0;" parent="EEm19mTDCfVg3El5hA5p-7" vertex="1">
                    <mxGeometry y="120" width="140" height="30" as="geometry"/>
                </mxCell>
                <mxCell id="gNYcn8Aw_RzRxxZ_Zn79-0" value="&lt;font style=&quot;font-size: 24px;&quot;&gt;一案&lt;/font&gt;" style="text;html=1;align=center;verticalAlign=middle;resizable=0;points=[];autosize=1;strokeColor=none;fillColor=none;" parent="XhddECtok8xU8hurlZ1I-1" vertex="1">
                    <mxGeometry x="570" y="-190" width="70" height="40" as="geometry"/>
                </mxCell>
            </root>
        </mxGraphModel>
    </diagram>
    <diagram name="Ver0.32" id="smDYWdHBAsGeCVZ1c9cf">
        <mxGraphModel dx="2393" dy="1673" grid="1" gridSize="10" guides="1" tooltips="1" connect="1" arrows="1" fold="1" page="1" pageScale="1" pageWidth="827" pageHeight="1169" math="0" shadow="0">
            <root>
                <mxCell id="kR95hG_SkFRsH1O5zrRT-0"/>
                <mxCell id="kR95hG_SkFRsH1O5zrRT-1" parent="kR95hG_SkFRsH1O5zrRT-0"/>
                <mxCell id="kR95hG_SkFRsH1O5zrRT-2" style="edgeStyle=orthogonalEdgeStyle;rounded=0;orthogonalLoop=1;jettySize=auto;html=1;endArrow=ERoneToMany;endFill=0;startArrow=ERone;startFill=0;" parent="kR95hG_SkFRsH1O5zrRT-1" source="kR95hG_SkFRsH1O5zrRT-3" target="kR95hG_SkFRsH1O5zrRT-43" edge="1">
                    <mxGeometry relative="1" as="geometry">
                        <mxPoint x="110" y="390" as="targetPoint"/>
                    </mxGeometry>
                </mxCell>
                <mxCell id="kR95hG_SkFRsH1O5zrRT-3" value="農作者" style="swimlane;fontStyle=0;childLayout=stackLayout;horizontal=1;startSize=30;horizontalStack=0;resizeParent=1;resizeParentMax=0;resizeLast=0;collapsible=1;marginBottom=0;" parent="kR95hG_SkFRsH1O5zrRT-1" vertex="1">
                    <mxGeometry x="-120" y="330" width="140" height="120" as="geometry"/>
                </mxCell>
                <mxCell id="kR95hG_SkFRsH1O5zrRT-4" value="＊農作者ID" style="text;strokeColor=none;fillColor=none;align=left;verticalAlign=middle;spacingLeft=4;spacingRight=4;overflow=hidden;points=[[0,0.5],[1,0.5]];portConstraint=eastwest;rotatable=0;" parent="kR95hG_SkFRsH1O5zrRT-3" vertex="1">
                    <mxGeometry y="30" width="140" height="30" as="geometry"/>
                </mxCell>
                <mxCell id="kR95hG_SkFRsH1O5zrRT-5" value="農作者名" style="text;strokeColor=none;fillColor=none;align=left;verticalAlign=middle;spacingLeft=4;spacingRight=4;overflow=hidden;points=[[0,0.5],[1,0.5]];portConstraint=eastwest;rotatable=0;" parent="kR95hG_SkFRsH1O5zrRT-3" vertex="1">
                    <mxGeometry y="60" width="140" height="30" as="geometry"/>
                </mxCell>
                <mxCell id="kR95hG_SkFRsH1O5zrRT-6" value="農耕地ID" style="text;strokeColor=none;fillColor=none;align=left;verticalAlign=middle;spacingLeft=4;spacingRight=4;overflow=hidden;points=[[0,0.5],[1,0.5]];portConstraint=eastwest;rotatable=0;" parent="kR95hG_SkFRsH1O5zrRT-3" vertex="1">
                    <mxGeometry y="90" width="140" height="30" as="geometry"/>
                </mxCell>
                <mxCell id="kR95hG_SkFRsH1O5zrRT-7" style="edgeStyle=orthogonalEdgeStyle;rounded=0;orthogonalLoop=1;jettySize=auto;html=1;startArrow=ERone;startFill=0;endArrow=ERzeroToMany;endFill=0;" parent="kR95hG_SkFRsH1O5zrRT-1" source="kR95hG_SkFRsH1O5zrRT-33" target="kR95hG_SkFRsH1O5zrRT-36" edge="1">
                    <mxGeometry relative="1" as="geometry">
                        <mxPoint x="344" y="150" as="sourcePoint"/>
                        <Array as="points">
                            <mxPoint x="460" y="45"/>
                        </Array>
                    </mxGeometry>
                </mxCell>
                <mxCell id="kR95hG_SkFRsH1O5zrRT-8" value="農耕地" style="swimlane;fontStyle=0;childLayout=stackLayout;horizontal=1;startSize=30;horizontalStack=0;resizeParent=1;resizeParentMax=0;resizeLast=0;collapsible=1;marginBottom=0;" parent="kR95hG_SkFRsH1O5zrRT-1" vertex="1">
                    <mxGeometry x="274" y="345" width="140" height="90" as="geometry"/>
                </mxCell>
                <mxCell id="kR95hG_SkFRsH1O5zrRT-9" value="＊農耕地ID" style="text;strokeColor=none;fillColor=none;align=left;verticalAlign=middle;spacingLeft=4;spacingRight=4;overflow=hidden;points=[[0,0.5],[1,0.5]];portConstraint=eastwest;rotatable=0;" parent="kR95hG_SkFRsH1O5zrRT-8" vertex="1">
                    <mxGeometry y="30" width="140" height="30" as="geometry"/>
                </mxCell>
                <mxCell id="kR95hG_SkFRsH1O5zrRT-10" value="農耕地名" style="text;strokeColor=none;fillColor=none;align=left;verticalAlign=middle;spacingLeft=4;spacingRight=4;overflow=hidden;points=[[0,0.5],[1,0.5]];portConstraint=eastwest;rotatable=0;" parent="kR95hG_SkFRsH1O5zrRT-8" vertex="1">
                    <mxGeometry y="60" width="140" height="30" as="geometry"/>
                </mxCell>
                <mxCell id="kR95hG_SkFRsH1O5zrRT-11" value="収穫" style="swimlane;fontStyle=0;childLayout=stackLayout;horizontal=1;startSize=30;horizontalStack=0;resizeParent=1;resizeParentMax=0;resizeLast=0;collapsible=1;marginBottom=0;" parent="kR95hG_SkFRsH1O5zrRT-1" vertex="1">
                    <mxGeometry x="790" y="-40" width="140" height="180" as="geometry">
                        <mxRectangle x="510" y="375" width="60" height="30" as="alternateBounds"/>
                    </mxGeometry>
                </mxCell>
                <mxCell id="kR95hG_SkFRsH1O5zrRT-12" value="*収穫ID" style="text;strokeColor=none;fillColor=none;align=left;verticalAlign=middle;spacingLeft=4;spacingRight=4;overflow=hidden;points=[[0,0.5],[1,0.5]];portConstraint=eastwest;rotatable=0;" parent="kR95hG_SkFRsH1O5zrRT-11" vertex="1">
                    <mxGeometry y="30" width="140" height="30" as="geometry"/>
                </mxCell>
                <mxCell id="kR95hG_SkFRsH1O5zrRT-13" value="*機械ID" style="text;strokeColor=none;fillColor=none;align=left;verticalAlign=middle;spacingLeft=4;spacingRight=4;overflow=hidden;points=[[0,0.5],[1,0.5]];portConstraint=eastwest;rotatable=0;" parent="kR95hG_SkFRsH1O5zrRT-11" vertex="1">
                    <mxGeometry y="60" width="140" height="30" as="geometry"/>
                </mxCell>
                <mxCell id="kR95hG_SkFRsH1O5zrRT-16" value="写真ID" style="text;strokeColor=none;fillColor=none;align=left;verticalAlign=middle;spacingLeft=4;spacingRight=4;overflow=hidden;points=[[0,0.5],[1,0.5]];portConstraint=eastwest;rotatable=0;" parent="kR95hG_SkFRsH1O5zrRT-11" vertex="1">
                    <mxGeometry y="90" width="140" height="30" as="geometry"/>
                </mxCell>
                <mxCell id="kR95hG_SkFRsH1O5zrRT-14" value="収穫日付" style="text;strokeColor=none;fillColor=none;align=left;verticalAlign=middle;spacingLeft=4;spacingRight=4;overflow=hidden;points=[[0,0.5],[1,0.5]];portConstraint=eastwest;rotatable=0;" parent="kR95hG_SkFRsH1O5zrRT-11" vertex="1">
                    <mxGeometry y="120" width="140" height="30" as="geometry"/>
                </mxCell>
                <mxCell id="kR95hG_SkFRsH1O5zrRT-15" value="収穫数" style="text;strokeColor=none;fillColor=none;align=left;verticalAlign=middle;spacingLeft=4;spacingRight=4;overflow=hidden;points=[[0,0.5],[1,0.5]];portConstraint=eastwest;rotatable=0;" parent="kR95hG_SkFRsH1O5zrRT-11" vertex="1">
                    <mxGeometry y="150" width="140" height="30" as="geometry"/>
                </mxCell>
                <mxCell id="kR95hG_SkFRsH1O5zrRT-20" value="温度・湿度" style="swimlane;fontStyle=0;childLayout=stackLayout;horizontal=1;startSize=30;horizontalStack=0;resizeParent=1;resizeParentMax=0;resizeLast=0;collapsible=1;marginBottom=0;" parent="kR95hG_SkFRsH1O5zrRT-1" vertex="1">
                    <mxGeometry x="600" y="290" width="140" height="180" as="geometry">
                        <mxRectangle x="510" y="375" width="60" height="30" as="alternateBounds"/>
                    </mxGeometry>
                </mxCell>
                <mxCell id="kR95hG_SkFRsH1O5zrRT-21" value="*温度_湿度ID" style="text;strokeColor=none;fillColor=none;align=left;verticalAlign=middle;spacingLeft=4;spacingRight=4;overflow=hidden;points=[[0,0.5],[1,0.5]];portConstraint=eastwest;rotatable=0;" parent="kR95hG_SkFRsH1O5zrRT-20" vertex="1">
                    <mxGeometry y="30" width="140" height="30" as="geometry"/>
                </mxCell>
                <mxCell id="kR95hG_SkFRsH1O5zrRT-22" value="農耕地ID" style="text;strokeColor=none;fillColor=none;align=left;verticalAlign=middle;spacingLeft=4;spacingRight=4;overflow=hidden;points=[[0,0.5],[1,0.5]];portConstraint=eastwest;rotatable=0;" parent="kR95hG_SkFRsH1O5zrRT-20" vertex="1">
                    <mxGeometry y="60" width="140" height="30" as="geometry"/>
                </mxCell>
                <mxCell id="kR95hG_SkFRsH1O5zrRT-23" value="日付" style="text;strokeColor=none;fillColor=none;align=left;verticalAlign=middle;spacingLeft=4;spacingRight=4;overflow=hidden;points=[[0,0.5],[1,0.5]];portConstraint=eastwest;rotatable=0;" parent="kR95hG_SkFRsH1O5zrRT-20" vertex="1">
                    <mxGeometry y="90" width="140" height="30" as="geometry"/>
                </mxCell>
                <mxCell id="kR95hG_SkFRsH1O5zrRT-24" value="湿度データ" style="text;strokeColor=none;fillColor=none;align=left;verticalAlign=middle;spacingLeft=4;spacingRight=4;overflow=hidden;points=[[0,0.5],[1,0.5]];portConstraint=eastwest;rotatable=0;" parent="kR95hG_SkFRsH1O5zrRT-20" vertex="1">
                    <mxGeometry y="120" width="140" height="30" as="geometry"/>
                </mxCell>
                <mxCell id="kR95hG_SkFRsH1O5zrRT-25" value="温度データ" style="text;strokeColor=none;fillColor=none;align=left;verticalAlign=middle;spacingLeft=4;spacingRight=4;overflow=hidden;points=[[0,0.5],[1,0.5]];portConstraint=eastwest;rotatable=0;" parent="kR95hG_SkFRsH1O5zrRT-20" vertex="1">
                    <mxGeometry y="150" width="140" height="30" as="geometry"/>
                </mxCell>
                <mxCell id="kR95hG_SkFRsH1O5zrRT-26" style="edgeStyle=orthogonalEdgeStyle;rounded=0;orthogonalLoop=1;jettySize=auto;html=1;endArrow=ERoneToMany;endFill=0;startArrow=ERzeroToOne;startFill=0;" parent="kR95hG_SkFRsH1O5zrRT-1" source="kR95hG_SkFRsH1O5zrRT-8" target="kR95hG_SkFRsH1O5zrRT-20" edge="1">
                    <mxGeometry relative="1" as="geometry">
                        <mxPoint x="424" y="430" as="sourcePoint"/>
                        <mxPoint x="540.0000000000002" y="430" as="targetPoint"/>
                        <Array as="points">
                            <mxPoint x="500" y="390"/>
                            <mxPoint x="500" y="390"/>
                        </Array>
                    </mxGeometry>
                </mxCell>
                <mxCell id="kR95hG_SkFRsH1O5zrRT-27" value="未収穫" style="swimlane;fontStyle=0;childLayout=stackLayout;horizontal=1;startSize=30;horizontalStack=0;resizeParent=1;resizeParentMax=0;resizeLast=0;collapsible=1;marginBottom=0;" parent="kR95hG_SkFRsH1O5zrRT-1" vertex="1">
                    <mxGeometry x="790" y="155" width="140" height="180" as="geometry">
                        <mxRectangle x="510" y="375" width="60" height="30" as="alternateBounds"/>
                    </mxGeometry>
                </mxCell>
                <mxCell id="kR95hG_SkFRsH1O5zrRT-28" value="*未収穫ID" style="text;strokeColor=none;fillColor=none;align=left;verticalAlign=middle;spacingLeft=4;spacingRight=4;overflow=hidden;points=[[0,0.5],[1,0.5]];portConstraint=eastwest;rotatable=0;" parent="kR95hG_SkFRsH1O5zrRT-27" vertex="1">
                    <mxGeometry y="30" width="140" height="30" as="geometry"/>
                </mxCell>
                <mxCell id="kR95hG_SkFRsH1O5zrRT-29" value="*機械ID" style="text;strokeColor=none;fillColor=none;align=left;verticalAlign=middle;spacingLeft=4;spacingRight=4;overflow=hidden;points=[[0,0.5],[1,0.5]];portConstraint=eastwest;rotatable=0;" parent="kR95hG_SkFRsH1O5zrRT-27" vertex="1">
                    <mxGeometry y="60" width="140" height="30" as="geometry"/>
                </mxCell>
                <mxCell id="kR95hG_SkFRsH1O5zrRT-32" value="*写真ID" style="text;strokeColor=none;fillColor=none;align=left;verticalAlign=middle;spacingLeft=4;spacingRight=4;overflow=hidden;points=[[0,0.5],[1,0.5]];portConstraint=eastwest;rotatable=0;" parent="kR95hG_SkFRsH1O5zrRT-27" vertex="1">
                    <mxGeometry y="90" width="140" height="30" as="geometry"/>
                </mxCell>
                <mxCell id="kR95hG_SkFRsH1O5zrRT-30" value="収穫日付" style="text;strokeColor=none;fillColor=none;align=left;verticalAlign=middle;spacingLeft=4;spacingRight=4;overflow=hidden;points=[[0,0.5],[1,0.5]];portConstraint=eastwest;rotatable=0;" parent="kR95hG_SkFRsH1O5zrRT-27" vertex="1">
                    <mxGeometry y="120" width="140" height="30" as="geometry"/>
                </mxCell>
                <mxCell id="kR95hG_SkFRsH1O5zrRT-31" value="未収穫数" style="text;strokeColor=none;fillColor=none;align=left;verticalAlign=middle;spacingLeft=4;spacingRight=4;overflow=hidden;points=[[0,0.5],[1,0.5]];portConstraint=eastwest;rotatable=0;" parent="kR95hG_SkFRsH1O5zrRT-27" vertex="1">
                    <mxGeometry y="150" width="140" height="30" as="geometry"/>
                </mxCell>
                <mxCell id="kR95hG_SkFRsH1O5zrRT-33" value="農作物" style="swimlane;fontStyle=0;childLayout=stackLayout;horizontal=1;startSize=30;horizontalStack=0;resizeParent=1;resizeParentMax=0;resizeLast=0;collapsible=1;marginBottom=0;" parent="kR95hG_SkFRsH1O5zrRT-1" vertex="1">
                    <mxGeometry x="274" width="140" height="90" as="geometry">
                        <mxRectangle x="510" y="375" width="60" height="30" as="alternateBounds"/>
                    </mxGeometry>
                </mxCell>
                <mxCell id="kR95hG_SkFRsH1O5zrRT-34" value="*農作物ID" style="text;strokeColor=none;fillColor=none;align=left;verticalAlign=middle;spacingLeft=4;spacingRight=4;overflow=hidden;points=[[0,0.5],[1,0.5]];portConstraint=eastwest;rotatable=0;" parent="kR95hG_SkFRsH1O5zrRT-33" vertex="1">
                    <mxGeometry y="30" width="140" height="30" as="geometry"/>
                </mxCell>
                <mxCell id="kR95hG_SkFRsH1O5zrRT-35" value="作物名" style="text;strokeColor=none;fillColor=none;align=left;verticalAlign=middle;spacingLeft=4;spacingRight=4;overflow=hidden;points=[[0,0.5],[1,0.5]];portConstraint=eastwest;rotatable=0;" parent="kR95hG_SkFRsH1O5zrRT-33" vertex="1">
                    <mxGeometry y="60" width="140" height="30" as="geometry"/>
                </mxCell>
                <mxCell id="kR95hG_SkFRsH1O5zrRT-36" value="機械" style="swimlane;fontStyle=0;childLayout=stackLayout;horizontal=1;startSize=30;horizontalStack=0;resizeParent=1;resizeParentMax=0;resizeLast=0;collapsible=1;marginBottom=0;" parent="kR95hG_SkFRsH1O5zrRT-1" vertex="1">
                    <mxGeometry x="560" y="30" width="140" height="150" as="geometry">
                        <mxRectangle x="510" y="375" width="60" height="30" as="alternateBounds"/>
                    </mxGeometry>
                </mxCell>
                <mxCell id="kR95hG_SkFRsH1O5zrRT-37" value="*機械ID" style="text;strokeColor=none;fillColor=none;align=left;verticalAlign=middle;spacingLeft=4;spacingRight=4;overflow=hidden;points=[[0,0.5],[1,0.5]];portConstraint=eastwest;rotatable=0;" parent="kR95hG_SkFRsH1O5zrRT-36" vertex="1">
                    <mxGeometry y="30" width="140" height="30" as="geometry"/>
                </mxCell>
                <mxCell id="kR95hG_SkFRsH1O5zrRT-38" value="農耕地ID" style="text;strokeColor=none;fillColor=none;align=left;verticalAlign=middle;spacingLeft=4;spacingRight=4;overflow=hidden;points=[[0,0.5],[1,0.5]];portConstraint=eastwest;rotatable=0;" parent="kR95hG_SkFRsH1O5zrRT-36" vertex="1">
                    <mxGeometry y="60" width="140" height="30" as="geometry"/>
                </mxCell>
                <mxCell id="N5d6VxzuTEUgtz-pQUE6-0" value="農作物ID" style="text;strokeColor=none;fillColor=none;align=left;verticalAlign=middle;spacingLeft=4;spacingRight=4;overflow=hidden;points=[[0,0.5],[1,0.5]];portConstraint=eastwest;rotatable=0;" vertex="1" parent="kR95hG_SkFRsH1O5zrRT-36">
                    <mxGeometry y="90" width="140" height="30" as="geometry"/>
                </mxCell>
                <mxCell id="kR95hG_SkFRsH1O5zrRT-39" value="機械番号" style="text;strokeColor=none;fillColor=none;align=left;verticalAlign=middle;spacingLeft=4;spacingRight=4;overflow=hidden;points=[[0,0.5],[1,0.5]];portConstraint=eastwest;rotatable=0;" parent="kR95hG_SkFRsH1O5zrRT-36" vertex="1">
                    <mxGeometry y="120" width="140" height="30" as="geometry"/>
                </mxCell>
                <mxCell id="kR95hG_SkFRsH1O5zrRT-40" style="edgeStyle=orthogonalEdgeStyle;rounded=0;orthogonalLoop=1;jettySize=auto;html=1;endArrow=ERone;endFill=0;startArrow=ERoneToMany;startFill=0;" parent="kR95hG_SkFRsH1O5zrRT-1" source="kR95hG_SkFRsH1O5zrRT-11" target="kR95hG_SkFRsH1O5zrRT-36" edge="1">
                    <mxGeometry relative="1" as="geometry">
                        <mxPoint x="350" y="120" as="sourcePoint"/>
                        <mxPoint x="540.0000000000002" y="400" as="targetPoint"/>
                        <Array as="points">
                            <mxPoint x="740" y="30"/>
                            <mxPoint x="740" y="130"/>
                        </Array>
                    </mxGeometry>
                </mxCell>
                <mxCell id="kR95hG_SkFRsH1O5zrRT-41" style="edgeStyle=orthogonalEdgeStyle;rounded=0;orthogonalLoop=1;jettySize=auto;html=1;endArrow=ERone;endFill=0;startArrow=ERoneToMany;startFill=0;" parent="kR95hG_SkFRsH1O5zrRT-1" source="kR95hG_SkFRsH1O5zrRT-27" target="kR95hG_SkFRsH1O5zrRT-36" edge="1">
                    <mxGeometry relative="1" as="geometry">
                        <mxPoint x="730.0000000000002" y="820" as="sourcePoint"/>
                        <mxPoint x="770" y="310.0000000000002" as="targetPoint"/>
                        <Array as="points">
                            <mxPoint x="740" y="240"/>
                            <mxPoint x="740" y="130"/>
                        </Array>
                    </mxGeometry>
                </mxCell>
                <mxCell id="kR95hG_SkFRsH1O5zrRT-42" style="edgeStyle=orthogonalEdgeStyle;rounded=0;orthogonalLoop=1;jettySize=auto;html=1;endArrow=ERzeroToMany;endFill=0;startArrow=ERone;startFill=0;" parent="kR95hG_SkFRsH1O5zrRT-1" source="kR95hG_SkFRsH1O5zrRT-33" target="kR95hG_SkFRsH1O5zrRT-49" edge="1">
                    <mxGeometry relative="1" as="geometry">
                        <mxPoint x="339.9565217391307" y="740" as="sourcePoint"/>
                        <mxPoint x="339.9565217391307" y="445" as="targetPoint"/>
                        <Array as="points">
                            <mxPoint x="344" y="180"/>
                            <mxPoint x="344" y="180"/>
                        </Array>
                    </mxGeometry>
                </mxCell>
                <mxCell id="kR95hG_SkFRsH1O5zrRT-43" value="所有" style="swimlane;fontStyle=0;childLayout=stackLayout;horizontal=1;startSize=30;horizontalStack=0;resizeParent=1;resizeParentMax=0;resizeLast=0;collapsible=1;marginBottom=0;" parent="kR95hG_SkFRsH1O5zrRT-1" vertex="1">
                    <mxGeometry x="80" y="345" width="140" height="90" as="geometry"/>
                </mxCell>
                <mxCell id="kR95hG_SkFRsH1O5zrRT-44" value="＊農作者ID" style="text;strokeColor=none;fillColor=none;align=left;verticalAlign=middle;spacingLeft=4;spacingRight=4;overflow=hidden;points=[[0,0.5],[1,0.5]];portConstraint=eastwest;rotatable=0;" parent="kR95hG_SkFRsH1O5zrRT-43" vertex="1">
                    <mxGeometry y="30" width="140" height="30" as="geometry"/>
                </mxCell>
                <mxCell id="kR95hG_SkFRsH1O5zrRT-45" value="＊農耕地ID" style="text;strokeColor=none;fillColor=none;align=left;verticalAlign=middle;spacingLeft=4;spacingRight=4;overflow=hidden;points=[[0,0.5],[1,0.5]];portConstraint=eastwest;rotatable=0;" parent="kR95hG_SkFRsH1O5zrRT-43" vertex="1">
                    <mxGeometry y="60" width="140" height="30" as="geometry"/>
                </mxCell>
                <mxCell id="kR95hG_SkFRsH1O5zrRT-47" value="*収穫と未収穫の識別子が必要&lt;br&gt;（写真ID&lt;br&gt;の区別がつかなくなる）*" style="shape=callout;whiteSpace=wrap;html=1;perimeter=calloutPerimeter;size=15;position=0.46;" parent="kR95hG_SkFRsH1O5zrRT-1" vertex="1">
                    <mxGeometry x="1003.5" y="-15" width="213" height="80" as="geometry"/>
                </mxCell>
                <mxCell id="kR95hG_SkFRsH1O5zrRT-48" style="edgeStyle=orthogonalEdgeStyle;rounded=0;orthogonalLoop=1;jettySize=auto;html=1;endArrow=ERoneToMany;endFill=0;startArrow=ERone;startFill=0;" parent="kR95hG_SkFRsH1O5zrRT-1" source="kR95hG_SkFRsH1O5zrRT-9" target="kR95hG_SkFRsH1O5zrRT-43" edge="1">
                    <mxGeometry relative="1" as="geometry"/>
                </mxCell>
                <mxCell id="kR95hG_SkFRsH1O5zrRT-49" value="植付" style="swimlane;fontStyle=0;childLayout=stackLayout;horizontal=1;startSize=30;horizontalStack=0;resizeParent=1;resizeParentMax=0;resizeLast=0;collapsible=1;marginBottom=0;" parent="kR95hG_SkFRsH1O5zrRT-1" vertex="1">
                    <mxGeometry x="274" y="160" width="140" height="120" as="geometry"/>
                </mxCell>
                <mxCell id="kR95hG_SkFRsH1O5zrRT-50" value="＊農作物ID" style="text;strokeColor=none;fillColor=none;align=left;verticalAlign=middle;spacingLeft=4;spacingRight=4;overflow=hidden;points=[[0,0.5],[1,0.5]];portConstraint=eastwest;rotatable=0;" parent="kR95hG_SkFRsH1O5zrRT-49" vertex="1">
                    <mxGeometry y="30" width="140" height="30" as="geometry"/>
                </mxCell>
                <mxCell id="kR95hG_SkFRsH1O5zrRT-51" value="＊農耕地ID" style="text;strokeColor=none;fillColor=none;align=left;verticalAlign=middle;spacingLeft=4;spacingRight=4;overflow=hidden;points=[[0,0.5],[1,0.5]];portConstraint=eastwest;rotatable=0;" parent="kR95hG_SkFRsH1O5zrRT-49" vertex="1">
                    <mxGeometry y="60" width="140" height="30" as="geometry"/>
                </mxCell>
                <mxCell id="kR95hG_SkFRsH1O5zrRT-52" value="開始日付" style="text;strokeColor=none;fillColor=none;align=left;verticalAlign=middle;spacingLeft=4;spacingRight=4;overflow=hidden;points=[[0,0.5],[1,0.5]];portConstraint=eastwest;rotatable=0;" parent="kR95hG_SkFRsH1O5zrRT-49" vertex="1">
                    <mxGeometry y="90" width="140" height="30" as="geometry"/>
                </mxCell>
                <mxCell id="kR95hG_SkFRsH1O5zrRT-53" style="edgeStyle=orthogonalEdgeStyle;rounded=0;orthogonalLoop=1;jettySize=auto;html=1;startArrow=ERone;startFill=0;endArrow=ERzeroToMany;endFill=0;" parent="kR95hG_SkFRsH1O5zrRT-1" source="kR95hG_SkFRsH1O5zrRT-8" target="kR95hG_SkFRsH1O5zrRT-49" edge="1">
                    <mxGeometry relative="1" as="geometry">
                        <Array as="points">
                            <mxPoint x="344" y="300"/>
                            <mxPoint x="344" y="300"/>
                        </Array>
                    </mxGeometry>
                </mxCell>
                <mxCell id="wqHFPdSd_4U_6ltq6_Cm-6" style="edgeStyle=orthogonalEdgeStyle;rounded=0;orthogonalLoop=1;jettySize=auto;html=1;startArrow=ERoneToMany;startFill=0;endArrow=ERone;endFill=0;" parent="kR95hG_SkFRsH1O5zrRT-1" source="kR95hG_SkFRsH1O5zrRT-11" target="wqHFPdSd_4U_6ltq6_Cm-0" edge="1">
                    <mxGeometry relative="1" as="geometry">
                        <Array as="points">
                            <mxPoint x="985" y="30"/>
                            <mxPoint x="985" y="130"/>
                        </Array>
                    </mxGeometry>
                </mxCell>
                <mxCell id="wqHFPdSd_4U_6ltq6_Cm-7" style="edgeStyle=orthogonalEdgeStyle;rounded=0;orthogonalLoop=1;jettySize=auto;html=1;startArrow=ERoneToMany;startFill=0;endArrow=ERone;endFill=0;" parent="kR95hG_SkFRsH1O5zrRT-1" source="kR95hG_SkFRsH1O5zrRT-27" target="wqHFPdSd_4U_6ltq6_Cm-0" edge="1">
                    <mxGeometry relative="1" as="geometry"/>
                </mxCell>
                <mxCell id="wqHFPdSd_4U_6ltq6_Cm-0" value="写真" style="swimlane;fontStyle=0;childLayout=stackLayout;horizontal=1;startSize=30;horizontalStack=0;resizeParent=1;resizeParentMax=0;resizeLast=0;collapsible=1;marginBottom=0;" parent="kR95hG_SkFRsH1O5zrRT-1" vertex="1">
                    <mxGeometry x="1040" y="70" width="140" height="120" as="geometry">
                        <mxRectangle x="510" y="375" width="60" height="30" as="alternateBounds"/>
                    </mxGeometry>
                </mxCell>
                <mxCell id="wqHFPdSd_4U_6ltq6_Cm-1" value="*ID" style="text;strokeColor=none;fillColor=none;align=left;verticalAlign=middle;spacingLeft=4;spacingRight=4;overflow=hidden;points=[[0,0.5],[1,0.5]];portConstraint=eastwest;rotatable=0;" parent="wqHFPdSd_4U_6ltq6_Cm-0" vertex="1">
                    <mxGeometry y="30" width="140" height="30" as="geometry"/>
                </mxCell>
                <mxCell id="wqHFPdSd_4U_6ltq6_Cm-8" value="*num" style="text;strokeColor=none;fillColor=none;align=left;verticalAlign=middle;spacingLeft=4;spacingRight=4;overflow=hidden;points=[[0,0.5],[1,0.5]];portConstraint=eastwest;rotatable=0;" parent="wqHFPdSd_4U_6ltq6_Cm-0" vertex="1">
                    <mxGeometry y="60" width="140" height="30" as="geometry"/>
                </mxCell>
                <mxCell id="wqHFPdSd_4U_6ltq6_Cm-5" value="写真URL" style="text;strokeColor=none;fillColor=none;align=left;verticalAlign=middle;spacingLeft=4;spacingRight=4;overflow=hidden;points=[[0,0.5],[1,0.5]];portConstraint=eastwest;rotatable=0;" parent="wqHFPdSd_4U_6ltq6_Cm-0" vertex="1">
                    <mxGeometry y="90" width="140" height="30" as="geometry"/>
                </mxCell>
                <mxCell id="AP-7fJp1P4iIcFtOCLXJ-0" value="例：a1,b1など" style="shape=callout;whiteSpace=wrap;html=1;perimeter=calloutPerimeter;size=15;position=0.46;rotation=15;" parent="kR95hG_SkFRsH1O5zrRT-1" vertex="1">
                    <mxGeometry x="1070" y="-100" width="213" height="80" as="geometry"/>
                </mxCell>
                <mxCell id="qV-1h7UI6nNiE5ZCXDcM-2" style="edgeStyle=none;html=1;" parent="kR95hG_SkFRsH1O5zrRT-1" source="qV-1h7UI6nNiE5ZCXDcM-1" target="kR95hG_SkFRsH1O5zrRT-47" edge="1">
                    <mxGeometry relative="1" as="geometry"/>
                </mxCell>
                <mxCell id="qV-1h7UI6nNiE5ZCXDcM-1" value="今回はフォルダーを変える事で対応" style="shape=note;whiteSpace=wrap;html=1;backgroundOutline=1;darkOpacity=0.05;" parent="kR95hG_SkFRsH1O5zrRT-1" vertex="1">
                    <mxGeometry x="1240" y="85" width="100" height="90" as="geometry"/>
                </mxCell>
                <mxCell id="N5d6VxzuTEUgtz-pQUE6-2" style="edgeStyle=orthogonalEdgeStyle;rounded=0;orthogonalLoop=1;jettySize=auto;html=1;startArrow=ERone;startFill=0;endArrow=ERzeroToMany;endFill=0;" edge="1" parent="kR95hG_SkFRsH1O5zrRT-1" source="kR95hG_SkFRsH1O5zrRT-8" target="kR95hG_SkFRsH1O5zrRT-36">
                    <mxGeometry relative="1" as="geometry">
                        <mxPoint x="424" y="55" as="sourcePoint"/>
                        <mxPoint x="569.9999999999995" y="115" as="targetPoint"/>
                        <Array as="points">
                            <mxPoint x="380" y="320"/>
                            <mxPoint x="460" y="320"/>
                            <mxPoint x="460" y="105"/>
                        </Array>
                    </mxGeometry>
                </mxCell>
            </root>
        </mxGraphModel>
    </diagram>
    <diagram name="Ver0.33" id="dtPwuIojgMjHJN1PJEtO">
        <mxGraphModel dx="2158" dy="1597" grid="1" gridSize="10" guides="1" tooltips="1" connect="1" arrows="1" fold="1" page="1" pageScale="1" pageWidth="827" pageHeight="1169" math="0" shadow="0">
            <root>
                <mxCell id="wQIcVpBmVOxhk0p_Hv9_-0"/>
                <mxCell id="wQIcVpBmVOxhk0p_Hv9_-1" parent="wQIcVpBmVOxhk0p_Hv9_-0"/>
                <mxCell id="wQIcVpBmVOxhk0p_Hv9_-2" style="edgeStyle=orthogonalEdgeStyle;rounded=0;orthogonalLoop=1;jettySize=auto;html=1;endArrow=ERoneToMany;endFill=0;startArrow=ERone;startFill=0;" edge="1" parent="wQIcVpBmVOxhk0p_Hv9_-1" source="wQIcVpBmVOxhk0p_Hv9_-3" target="wQIcVpBmVOxhk0p_Hv9_-40">
                    <mxGeometry relative="1" as="geometry">
                        <mxPoint x="110" y="390" as="targetPoint"/>
                    </mxGeometry>
                </mxCell>
                <mxCell id="wQIcVpBmVOxhk0p_Hv9_-3" value="農作者" style="swimlane;fontStyle=0;childLayout=stackLayout;horizontal=1;startSize=30;horizontalStack=0;resizeParent=1;resizeParentMax=0;resizeLast=0;collapsible=1;marginBottom=0;" vertex="1" parent="wQIcVpBmVOxhk0p_Hv9_-1">
                    <mxGeometry x="-120" y="330" width="140" height="120" as="geometry"/>
                </mxCell>
                <mxCell id="wQIcVpBmVOxhk0p_Hv9_-4" value="＊農作者ID" style="text;strokeColor=none;fillColor=none;align=left;verticalAlign=middle;spacingLeft=4;spacingRight=4;overflow=hidden;points=[[0,0.5],[1,0.5]];portConstraint=eastwest;rotatable=0;" vertex="1" parent="wQIcVpBmVOxhk0p_Hv9_-3">
                    <mxGeometry y="30" width="140" height="30" as="geometry"/>
                </mxCell>
                <mxCell id="wQIcVpBmVOxhk0p_Hv9_-5" value="農作者名" style="text;strokeColor=none;fillColor=none;align=left;verticalAlign=middle;spacingLeft=4;spacingRight=4;overflow=hidden;points=[[0,0.5],[1,0.5]];portConstraint=eastwest;rotatable=0;" vertex="1" parent="wQIcVpBmVOxhk0p_Hv9_-3">
                    <mxGeometry y="60" width="140" height="30" as="geometry"/>
                </mxCell>
                <mxCell id="wQIcVpBmVOxhk0p_Hv9_-6" value="農耕地ID" style="text;strokeColor=none;fillColor=none;align=left;verticalAlign=middle;spacingLeft=4;spacingRight=4;overflow=hidden;points=[[0,0.5],[1,0.5]];portConstraint=eastwest;rotatable=0;" vertex="1" parent="wQIcVpBmVOxhk0p_Hv9_-3">
                    <mxGeometry y="90" width="140" height="30" as="geometry"/>
                </mxCell>
                <mxCell id="wQIcVpBmVOxhk0p_Hv9_-7" style="edgeStyle=orthogonalEdgeStyle;rounded=0;orthogonalLoop=1;jettySize=auto;html=1;startArrow=ERone;startFill=0;endArrow=ERzeroToMany;endFill=0;" edge="1" parent="wQIcVpBmVOxhk0p_Hv9_-1" source="wQIcVpBmVOxhk0p_Hv9_-30" target="wQIcVpBmVOxhk0p_Hv9_-33">
                    <mxGeometry relative="1" as="geometry">
                        <mxPoint x="344" y="150" as="sourcePoint"/>
                    </mxGeometry>
                </mxCell>
                <mxCell id="wQIcVpBmVOxhk0p_Hv9_-8" value="農耕地" style="swimlane;fontStyle=0;childLayout=stackLayout;horizontal=1;startSize=30;horizontalStack=0;resizeParent=1;resizeParentMax=0;resizeLast=0;collapsible=1;marginBottom=0;" vertex="1" parent="wQIcVpBmVOxhk0p_Hv9_-1">
                    <mxGeometry x="274" y="345" width="140" height="90" as="geometry"/>
                </mxCell>
                <mxCell id="wQIcVpBmVOxhk0p_Hv9_-9" value="＊農耕地ID" style="text;strokeColor=none;fillColor=none;align=left;verticalAlign=middle;spacingLeft=4;spacingRight=4;overflow=hidden;points=[[0,0.5],[1,0.5]];portConstraint=eastwest;rotatable=0;" vertex="1" parent="wQIcVpBmVOxhk0p_Hv9_-8">
                    <mxGeometry y="30" width="140" height="30" as="geometry"/>
                </mxCell>
                <mxCell id="wQIcVpBmVOxhk0p_Hv9_-10" value="農耕地名" style="text;strokeColor=none;fillColor=none;align=left;verticalAlign=middle;spacingLeft=4;spacingRight=4;overflow=hidden;points=[[0,0.5],[1,0.5]];portConstraint=eastwest;rotatable=0;" vertex="1" parent="wQIcVpBmVOxhk0p_Hv9_-8">
                    <mxGeometry y="60" width="140" height="30" as="geometry"/>
                </mxCell>
                <mxCell id="wQIcVpBmVOxhk0p_Hv9_-11" value="収穫" style="swimlane;fontStyle=0;childLayout=stackLayout;horizontal=1;startSize=30;horizontalStack=0;resizeParent=1;resizeParentMax=0;resizeLast=0;collapsible=1;marginBottom=0;" vertex="1" parent="wQIcVpBmVOxhk0p_Hv9_-1">
                    <mxGeometry x="600" y="-240" width="140" height="180" as="geometry">
                        <mxRectangle x="510" y="375" width="60" height="30" as="alternateBounds"/>
                    </mxGeometry>
                </mxCell>
                <mxCell id="wQIcVpBmVOxhk0p_Hv9_-12" value="*収穫ID" style="text;strokeColor=none;fillColor=none;align=left;verticalAlign=middle;spacingLeft=4;spacingRight=4;overflow=hidden;points=[[0,0.5],[1,0.5]];portConstraint=eastwest;rotatable=0;" vertex="1" parent="wQIcVpBmVOxhk0p_Hv9_-11">
                    <mxGeometry y="30" width="140" height="30" as="geometry"/>
                </mxCell>
                <mxCell id="wQIcVpBmVOxhk0p_Hv9_-13" value="*機械ID" style="text;strokeColor=none;fillColor=none;align=left;verticalAlign=middle;spacingLeft=4;spacingRight=4;overflow=hidden;points=[[0,0.5],[1,0.5]];portConstraint=eastwest;rotatable=0;" vertex="1" parent="wQIcVpBmVOxhk0p_Hv9_-11">
                    <mxGeometry y="60" width="140" height="30" as="geometry"/>
                </mxCell>
                <mxCell id="wQIcVpBmVOxhk0p_Hv9_-14" value="写真ID" style="text;strokeColor=none;fillColor=none;align=left;verticalAlign=middle;spacingLeft=4;spacingRight=4;overflow=hidden;points=[[0,0.5],[1,0.5]];portConstraint=eastwest;rotatable=0;" vertex="1" parent="wQIcVpBmVOxhk0p_Hv9_-11">
                    <mxGeometry y="90" width="140" height="30" as="geometry"/>
                </mxCell>
                <mxCell id="wQIcVpBmVOxhk0p_Hv9_-15" value="収穫日付" style="text;strokeColor=none;fillColor=none;align=left;verticalAlign=middle;spacingLeft=4;spacingRight=4;overflow=hidden;points=[[0,0.5],[1,0.5]];portConstraint=eastwest;rotatable=0;" vertex="1" parent="wQIcVpBmVOxhk0p_Hv9_-11">
                    <mxGeometry y="120" width="140" height="30" as="geometry"/>
                </mxCell>
                <mxCell id="wQIcVpBmVOxhk0p_Hv9_-16" value="収穫数" style="text;strokeColor=none;fillColor=none;align=left;verticalAlign=middle;spacingLeft=4;spacingRight=4;overflow=hidden;points=[[0,0.5],[1,0.5]];portConstraint=eastwest;rotatable=0;" vertex="1" parent="wQIcVpBmVOxhk0p_Hv9_-11">
                    <mxGeometry y="150" width="140" height="30" as="geometry"/>
                </mxCell>
                <mxCell id="wQIcVpBmVOxhk0p_Hv9_-17" value="温度・湿度" style="swimlane;fontStyle=0;childLayout=stackLayout;horizontal=1;startSize=30;horizontalStack=0;resizeParent=1;resizeParentMax=0;resizeLast=0;collapsible=1;marginBottom=0;" vertex="1" parent="wQIcVpBmVOxhk0p_Hv9_-1">
                    <mxGeometry x="600" y="290" width="140" height="180" as="geometry">
                        <mxRectangle x="510" y="375" width="60" height="30" as="alternateBounds"/>
                    </mxGeometry>
                </mxCell>
                <mxCell id="wQIcVpBmVOxhk0p_Hv9_-18" value="*温度_湿度ID" style="text;strokeColor=none;fillColor=none;align=left;verticalAlign=middle;spacingLeft=4;spacingRight=4;overflow=hidden;points=[[0,0.5],[1,0.5]];portConstraint=eastwest;rotatable=0;" vertex="1" parent="wQIcVpBmVOxhk0p_Hv9_-17">
                    <mxGeometry y="30" width="140" height="30" as="geometry"/>
                </mxCell>
                <mxCell id="wQIcVpBmVOxhk0p_Hv9_-19" value="農耕地ID" style="text;strokeColor=none;fillColor=none;align=left;verticalAlign=middle;spacingLeft=4;spacingRight=4;overflow=hidden;points=[[0,0.5],[1,0.5]];portConstraint=eastwest;rotatable=0;" vertex="1" parent="wQIcVpBmVOxhk0p_Hv9_-17">
                    <mxGeometry y="60" width="140" height="30" as="geometry"/>
                </mxCell>
                <mxCell id="wQIcVpBmVOxhk0p_Hv9_-20" value="日付" style="text;strokeColor=none;fillColor=none;align=left;verticalAlign=middle;spacingLeft=4;spacingRight=4;overflow=hidden;points=[[0,0.5],[1,0.5]];portConstraint=eastwest;rotatable=0;" vertex="1" parent="wQIcVpBmVOxhk0p_Hv9_-17">
                    <mxGeometry y="90" width="140" height="30" as="geometry"/>
                </mxCell>
                <mxCell id="wQIcVpBmVOxhk0p_Hv9_-21" value="湿度データ" style="text;strokeColor=none;fillColor=none;align=left;verticalAlign=middle;spacingLeft=4;spacingRight=4;overflow=hidden;points=[[0,0.5],[1,0.5]];portConstraint=eastwest;rotatable=0;" vertex="1" parent="wQIcVpBmVOxhk0p_Hv9_-17">
                    <mxGeometry y="120" width="140" height="30" as="geometry"/>
                </mxCell>
                <mxCell id="wQIcVpBmVOxhk0p_Hv9_-22" value="温度データ" style="text;strokeColor=none;fillColor=none;align=left;verticalAlign=middle;spacingLeft=4;spacingRight=4;overflow=hidden;points=[[0,0.5],[1,0.5]];portConstraint=eastwest;rotatable=0;" vertex="1" parent="wQIcVpBmVOxhk0p_Hv9_-17">
                    <mxGeometry y="150" width="140" height="30" as="geometry"/>
                </mxCell>
                <mxCell id="wQIcVpBmVOxhk0p_Hv9_-23" style="edgeStyle=orthogonalEdgeStyle;rounded=0;orthogonalLoop=1;jettySize=auto;html=1;endArrow=ERoneToMany;endFill=0;startArrow=ERzeroToOne;startFill=0;" edge="1" parent="wQIcVpBmVOxhk0p_Hv9_-1" source="wQIcVpBmVOxhk0p_Hv9_-8" target="wQIcVpBmVOxhk0p_Hv9_-17">
                    <mxGeometry relative="1" as="geometry">
                        <mxPoint x="424" y="430" as="sourcePoint"/>
                        <mxPoint x="540.0000000000002" y="430" as="targetPoint"/>
                        <Array as="points">
                            <mxPoint x="500" y="390"/>
                            <mxPoint x="500" y="390"/>
                        </Array>
                    </mxGeometry>
                </mxCell>
                <mxCell id="wQIcVpBmVOxhk0p_Hv9_-24" value="未収穫" style="swimlane;fontStyle=0;childLayout=stackLayout;horizontal=1;startSize=30;horizontalStack=0;resizeParent=1;resizeParentMax=0;resizeLast=0;collapsible=1;marginBottom=0;" vertex="1" parent="wQIcVpBmVOxhk0p_Hv9_-1">
                    <mxGeometry x="600" y="-45" width="140" height="180" as="geometry">
                        <mxRectangle x="510" y="375" width="60" height="30" as="alternateBounds"/>
                    </mxGeometry>
                </mxCell>
                <mxCell id="wQIcVpBmVOxhk0p_Hv9_-25" value="*未収穫ID" style="text;strokeColor=none;fillColor=none;align=left;verticalAlign=middle;spacingLeft=4;spacingRight=4;overflow=hidden;points=[[0,0.5],[1,0.5]];portConstraint=eastwest;rotatable=0;" vertex="1" parent="wQIcVpBmVOxhk0p_Hv9_-24">
                    <mxGeometry y="30" width="140" height="30" as="geometry"/>
                </mxCell>
                <mxCell id="wQIcVpBmVOxhk0p_Hv9_-26" value="*機械ID" style="text;strokeColor=none;fillColor=none;align=left;verticalAlign=middle;spacingLeft=4;spacingRight=4;overflow=hidden;points=[[0,0.5],[1,0.5]];portConstraint=eastwest;rotatable=0;" vertex="1" parent="wQIcVpBmVOxhk0p_Hv9_-24">
                    <mxGeometry y="60" width="140" height="30" as="geometry"/>
                </mxCell>
                <mxCell id="wQIcVpBmVOxhk0p_Hv9_-27" value="*写真ID" style="text;strokeColor=none;fillColor=none;align=left;verticalAlign=middle;spacingLeft=4;spacingRight=4;overflow=hidden;points=[[0,0.5],[1,0.5]];portConstraint=eastwest;rotatable=0;" vertex="1" parent="wQIcVpBmVOxhk0p_Hv9_-24">
                    <mxGeometry y="90" width="140" height="30" as="geometry"/>
                </mxCell>
                <mxCell id="wQIcVpBmVOxhk0p_Hv9_-28" value="収穫日付" style="text;strokeColor=none;fillColor=none;align=left;verticalAlign=middle;spacingLeft=4;spacingRight=4;overflow=hidden;points=[[0,0.5],[1,0.5]];portConstraint=eastwest;rotatable=0;" vertex="1" parent="wQIcVpBmVOxhk0p_Hv9_-24">
                    <mxGeometry y="120" width="140" height="30" as="geometry"/>
                </mxCell>
                <mxCell id="wQIcVpBmVOxhk0p_Hv9_-29" value="未収穫数" style="text;strokeColor=none;fillColor=none;align=left;verticalAlign=middle;spacingLeft=4;spacingRight=4;overflow=hidden;points=[[0,0.5],[1,0.5]];portConstraint=eastwest;rotatable=0;" vertex="1" parent="wQIcVpBmVOxhk0p_Hv9_-24">
                    <mxGeometry y="150" width="140" height="30" as="geometry"/>
                </mxCell>
                <mxCell id="wQIcVpBmVOxhk0p_Hv9_-30" value="農作物" style="swimlane;fontStyle=0;childLayout=stackLayout;horizontal=1;startSize=30;horizontalStack=0;resizeParent=1;resizeParentMax=0;resizeLast=0;collapsible=1;marginBottom=0;" vertex="1" parent="wQIcVpBmVOxhk0p_Hv9_-1">
                    <mxGeometry x="274" width="140" height="90" as="geometry">
                        <mxRectangle x="510" y="375" width="60" height="30" as="alternateBounds"/>
                    </mxGeometry>
                </mxCell>
                <mxCell id="wQIcVpBmVOxhk0p_Hv9_-31" value="*農作物ID" style="text;strokeColor=none;fillColor=none;align=left;verticalAlign=middle;spacingLeft=4;spacingRight=4;overflow=hidden;points=[[0,0.5],[1,0.5]];portConstraint=eastwest;rotatable=0;" vertex="1" parent="wQIcVpBmVOxhk0p_Hv9_-30">
                    <mxGeometry y="30" width="140" height="30" as="geometry"/>
                </mxCell>
                <mxCell id="wQIcVpBmVOxhk0p_Hv9_-32" value="作物名" style="text;strokeColor=none;fillColor=none;align=left;verticalAlign=middle;spacingLeft=4;spacingRight=4;overflow=hidden;points=[[0,0.5],[1,0.5]];portConstraint=eastwest;rotatable=0;" vertex="1" parent="wQIcVpBmVOxhk0p_Hv9_-30">
                    <mxGeometry y="60" width="140" height="30" as="geometry"/>
                </mxCell>
                <mxCell id="wQIcVpBmVOxhk0p_Hv9_-33" value="機械" style="swimlane;fontStyle=0;childLayout=stackLayout;horizontal=1;startSize=30;horizontalStack=0;resizeParent=1;resizeParentMax=0;resizeLast=0;collapsible=1;marginBottom=0;" vertex="1" parent="wQIcVpBmVOxhk0p_Hv9_-1">
                    <mxGeometry x="274" y="-215" width="140" height="120" as="geometry">
                        <mxRectangle x="510" y="375" width="60" height="30" as="alternateBounds"/>
                    </mxGeometry>
                </mxCell>
                <mxCell id="wQIcVpBmVOxhk0p_Hv9_-34" value="*機械ID" style="text;strokeColor=none;fillColor=none;align=left;verticalAlign=middle;spacingLeft=4;spacingRight=4;overflow=hidden;points=[[0,0.5],[1,0.5]];portConstraint=eastwest;rotatable=0;" vertex="1" parent="wQIcVpBmVOxhk0p_Hv9_-33">
                    <mxGeometry y="30" width="140" height="30" as="geometry"/>
                </mxCell>
                <mxCell id="wQIcVpBmVOxhk0p_Hv9_-35" value="農耕地ID" style="text;strokeColor=none;fillColor=none;align=left;verticalAlign=middle;spacingLeft=4;spacingRight=4;overflow=hidden;points=[[0,0.5],[1,0.5]];portConstraint=eastwest;rotatable=0;" vertex="1" parent="wQIcVpBmVOxhk0p_Hv9_-33">
                    <mxGeometry y="60" width="140" height="30" as="geometry"/>
                </mxCell>
                <mxCell id="wQIcVpBmVOxhk0p_Hv9_-36" value="機械番号" style="text;strokeColor=none;fillColor=none;align=left;verticalAlign=middle;spacingLeft=4;spacingRight=4;overflow=hidden;points=[[0,0.5],[1,0.5]];portConstraint=eastwest;rotatable=0;" vertex="1" parent="wQIcVpBmVOxhk0p_Hv9_-33">
                    <mxGeometry y="90" width="140" height="30" as="geometry"/>
                </mxCell>
                <mxCell id="wQIcVpBmVOxhk0p_Hv9_-37" style="edgeStyle=orthogonalEdgeStyle;rounded=0;orthogonalLoop=1;jettySize=auto;html=1;endArrow=ERone;endFill=0;startArrow=ERoneToMany;startFill=0;" edge="1" parent="wQIcVpBmVOxhk0p_Hv9_-1" source="wQIcVpBmVOxhk0p_Hv9_-11" target="wQIcVpBmVOxhk0p_Hv9_-33">
                    <mxGeometry relative="1" as="geometry">
                        <mxPoint x="350" y="120" as="sourcePoint"/>
                        <mxPoint x="540.0000000000002" y="400" as="targetPoint"/>
                        <Array as="points">
                            <mxPoint x="520" y="-170"/>
                            <mxPoint x="520" y="-170"/>
                        </Array>
                    </mxGeometry>
                </mxCell>
                <mxCell id="wQIcVpBmVOxhk0p_Hv9_-38" style="edgeStyle=orthogonalEdgeStyle;rounded=0;orthogonalLoop=1;jettySize=auto;html=1;endArrow=ERone;endFill=0;startArrow=ERoneToMany;startFill=0;" edge="1" parent="wQIcVpBmVOxhk0p_Hv9_-1" source="wQIcVpBmVOxhk0p_Hv9_-24" target="wQIcVpBmVOxhk0p_Hv9_-33">
                    <mxGeometry relative="1" as="geometry">
                        <mxPoint x="540.0000000000002" y="620" as="sourcePoint"/>
                        <mxPoint x="390.04347826086996" y="445" as="targetPoint"/>
                        <Array as="points">
                            <mxPoint x="450" y="40"/>
                            <mxPoint x="450" y="-120"/>
                        </Array>
                    </mxGeometry>
                </mxCell>
                <mxCell id="wQIcVpBmVOxhk0p_Hv9_-39" style="edgeStyle=orthogonalEdgeStyle;rounded=0;orthogonalLoop=1;jettySize=auto;html=1;endArrow=ERzeroToMany;endFill=0;startArrow=ERone;startFill=0;" edge="1" parent="wQIcVpBmVOxhk0p_Hv9_-1" source="wQIcVpBmVOxhk0p_Hv9_-30" target="wQIcVpBmVOxhk0p_Hv9_-45">
                    <mxGeometry relative="1" as="geometry">
                        <mxPoint x="339.9565217391307" y="740" as="sourcePoint"/>
                        <mxPoint x="339.9565217391307" y="445" as="targetPoint"/>
                        <Array as="points">
                            <mxPoint x="344" y="180"/>
                            <mxPoint x="344" y="180"/>
                        </Array>
                    </mxGeometry>
                </mxCell>
                <mxCell id="wQIcVpBmVOxhk0p_Hv9_-40" value="所有" style="swimlane;fontStyle=0;childLayout=stackLayout;horizontal=1;startSize=30;horizontalStack=0;resizeParent=1;resizeParentMax=0;resizeLast=0;collapsible=1;marginBottom=0;" vertex="1" parent="wQIcVpBmVOxhk0p_Hv9_-1">
                    <mxGeometry x="80" y="345" width="140" height="90" as="geometry"/>
                </mxCell>
                <mxCell id="wQIcVpBmVOxhk0p_Hv9_-41" value="＊農作者ID" style="text;strokeColor=none;fillColor=none;align=left;verticalAlign=middle;spacingLeft=4;spacingRight=4;overflow=hidden;points=[[0,0.5],[1,0.5]];portConstraint=eastwest;rotatable=0;" vertex="1" parent="wQIcVpBmVOxhk0p_Hv9_-40">
                    <mxGeometry y="30" width="140" height="30" as="geometry"/>
                </mxCell>
                <mxCell id="wQIcVpBmVOxhk0p_Hv9_-42" value="＊農耕地ID" style="text;strokeColor=none;fillColor=none;align=left;verticalAlign=middle;spacingLeft=4;spacingRight=4;overflow=hidden;points=[[0,0.5],[1,0.5]];portConstraint=eastwest;rotatable=0;" vertex="1" parent="wQIcVpBmVOxhk0p_Hv9_-40">
                    <mxGeometry y="60" width="140" height="30" as="geometry"/>
                </mxCell>
                <mxCell id="wQIcVpBmVOxhk0p_Hv9_-43" value="*収穫と未収穫の識別子が必要&lt;br&gt;（写真ID&lt;br&gt;の区別がつかなくなる）*" style="shape=callout;whiteSpace=wrap;html=1;perimeter=calloutPerimeter;size=15;position=0.46;" vertex="1" parent="wQIcVpBmVOxhk0p_Hv9_-1">
                    <mxGeometry x="813.5" y="-215" width="213" height="80" as="geometry"/>
                </mxCell>
                <mxCell id="wQIcVpBmVOxhk0p_Hv9_-44" style="edgeStyle=orthogonalEdgeStyle;rounded=0;orthogonalLoop=1;jettySize=auto;html=1;endArrow=ERoneToMany;endFill=0;startArrow=ERone;startFill=0;" edge="1" parent="wQIcVpBmVOxhk0p_Hv9_-1" source="wQIcVpBmVOxhk0p_Hv9_-9" target="wQIcVpBmVOxhk0p_Hv9_-40">
                    <mxGeometry relative="1" as="geometry"/>
                </mxCell>
                <mxCell id="wQIcVpBmVOxhk0p_Hv9_-45" value="植付" style="swimlane;fontStyle=0;childLayout=stackLayout;horizontal=1;startSize=30;horizontalStack=0;resizeParent=1;resizeParentMax=0;resizeLast=0;collapsible=1;marginBottom=0;" vertex="1" parent="wQIcVpBmVOxhk0p_Hv9_-1">
                    <mxGeometry x="274" y="160" width="140" height="120" as="geometry"/>
                </mxCell>
                <mxCell id="wQIcVpBmVOxhk0p_Hv9_-46" value="＊農作物ID" style="text;strokeColor=none;fillColor=none;align=left;verticalAlign=middle;spacingLeft=4;spacingRight=4;overflow=hidden;points=[[0,0.5],[1,0.5]];portConstraint=eastwest;rotatable=0;" vertex="1" parent="wQIcVpBmVOxhk0p_Hv9_-45">
                    <mxGeometry y="30" width="140" height="30" as="geometry"/>
                </mxCell>
                <mxCell id="wQIcVpBmVOxhk0p_Hv9_-47" value="＊農耕地ID" style="text;strokeColor=none;fillColor=none;align=left;verticalAlign=middle;spacingLeft=4;spacingRight=4;overflow=hidden;points=[[0,0.5],[1,0.5]];portConstraint=eastwest;rotatable=0;" vertex="1" parent="wQIcVpBmVOxhk0p_Hv9_-45">
                    <mxGeometry y="60" width="140" height="30" as="geometry"/>
                </mxCell>
                <mxCell id="wQIcVpBmVOxhk0p_Hv9_-48" value="開始日付" style="text;strokeColor=none;fillColor=none;align=left;verticalAlign=middle;spacingLeft=4;spacingRight=4;overflow=hidden;points=[[0,0.5],[1,0.5]];portConstraint=eastwest;rotatable=0;" vertex="1" parent="wQIcVpBmVOxhk0p_Hv9_-45">
                    <mxGeometry y="90" width="140" height="30" as="geometry"/>
                </mxCell>
                <mxCell id="wQIcVpBmVOxhk0p_Hv9_-49" style="edgeStyle=orthogonalEdgeStyle;rounded=0;orthogonalLoop=1;jettySize=auto;html=1;startArrow=ERone;startFill=0;endArrow=ERzeroToMany;endFill=0;" edge="1" parent="wQIcVpBmVOxhk0p_Hv9_-1" source="wQIcVpBmVOxhk0p_Hv9_-8" target="wQIcVpBmVOxhk0p_Hv9_-45">
                    <mxGeometry relative="1" as="geometry">
                        <Array as="points">
                            <mxPoint x="344" y="300"/>
                            <mxPoint x="344" y="300"/>
                        </Array>
                    </mxGeometry>
                </mxCell>
                <mxCell id="wQIcVpBmVOxhk0p_Hv9_-50" style="edgeStyle=orthogonalEdgeStyle;rounded=0;orthogonalLoop=1;jettySize=auto;html=1;startArrow=ERoneToMany;startFill=0;endArrow=ERone;endFill=0;" edge="1" parent="wQIcVpBmVOxhk0p_Hv9_-1" source="wQIcVpBmVOxhk0p_Hv9_-11" target="wQIcVpBmVOxhk0p_Hv9_-52">
                    <mxGeometry relative="1" as="geometry">
                        <Array as="points">
                            <mxPoint x="795" y="-170"/>
                            <mxPoint x="795" y="-70"/>
                        </Array>
                    </mxGeometry>
                </mxCell>
                <mxCell id="wQIcVpBmVOxhk0p_Hv9_-51" style="edgeStyle=orthogonalEdgeStyle;rounded=0;orthogonalLoop=1;jettySize=auto;html=1;startArrow=ERoneToMany;startFill=0;endArrow=ERone;endFill=0;" edge="1" parent="wQIcVpBmVOxhk0p_Hv9_-1" source="wQIcVpBmVOxhk0p_Hv9_-24" target="wQIcVpBmVOxhk0p_Hv9_-52">
                    <mxGeometry relative="1" as="geometry"/>
                </mxCell>
                <mxCell id="wQIcVpBmVOxhk0p_Hv9_-52" value="写真" style="swimlane;fontStyle=0;childLayout=stackLayout;horizontal=1;startSize=30;horizontalStack=0;resizeParent=1;resizeParentMax=0;resizeLast=0;collapsible=1;marginBottom=0;" vertex="1" parent="wQIcVpBmVOxhk0p_Hv9_-1">
                    <mxGeometry x="850" y="-130" width="140" height="120" as="geometry">
                        <mxRectangle x="510" y="375" width="60" height="30" as="alternateBounds"/>
                    </mxGeometry>
                </mxCell>
                <mxCell id="wQIcVpBmVOxhk0p_Hv9_-53" value="*ID" style="text;strokeColor=none;fillColor=none;align=left;verticalAlign=middle;spacingLeft=4;spacingRight=4;overflow=hidden;points=[[0,0.5],[1,0.5]];portConstraint=eastwest;rotatable=0;" vertex="1" parent="wQIcVpBmVOxhk0p_Hv9_-52">
                    <mxGeometry y="30" width="140" height="30" as="geometry"/>
                </mxCell>
                <mxCell id="wQIcVpBmVOxhk0p_Hv9_-54" value="*num" style="text;strokeColor=none;fillColor=none;align=left;verticalAlign=middle;spacingLeft=4;spacingRight=4;overflow=hidden;points=[[0,0.5],[1,0.5]];portConstraint=eastwest;rotatable=0;" vertex="1" parent="wQIcVpBmVOxhk0p_Hv9_-52">
                    <mxGeometry y="60" width="140" height="30" as="geometry"/>
                </mxCell>
                <mxCell id="wQIcVpBmVOxhk0p_Hv9_-55" value="写真URL" style="text;strokeColor=none;fillColor=none;align=left;verticalAlign=middle;spacingLeft=4;spacingRight=4;overflow=hidden;points=[[0,0.5],[1,0.5]];portConstraint=eastwest;rotatable=0;" vertex="1" parent="wQIcVpBmVOxhk0p_Hv9_-52">
                    <mxGeometry y="90" width="140" height="30" as="geometry"/>
                </mxCell>
                <mxCell id="wQIcVpBmVOxhk0p_Hv9_-56" value="例：a1,b1など" style="shape=callout;whiteSpace=wrap;html=1;perimeter=calloutPerimeter;size=15;position=0.46;rotation=15;" vertex="1" parent="wQIcVpBmVOxhk0p_Hv9_-1">
                    <mxGeometry x="880" y="-300" width="213" height="80" as="geometry"/>
                </mxCell>
                <mxCell id="wQIcVpBmVOxhk0p_Hv9_-57" style="edgeStyle=none;html=1;" edge="1" parent="wQIcVpBmVOxhk0p_Hv9_-1" source="wQIcVpBmVOxhk0p_Hv9_-58" target="wQIcVpBmVOxhk0p_Hv9_-43">
                    <mxGeometry relative="1" as="geometry"/>
                </mxCell>
                <mxCell id="wQIcVpBmVOxhk0p_Hv9_-58" value="今回はフォルダーを変える事で対応" style="shape=note;whiteSpace=wrap;html=1;backgroundOutline=1;darkOpacity=0.05;" vertex="1" parent="wQIcVpBmVOxhk0p_Hv9_-1">
                    <mxGeometry x="1050" y="-115" width="100" height="90" as="geometry"/>
                </mxCell>
            </root>
        </mxGraphModel>
    </diagram>
    <diagram name="Ver0.34" id="8-JiD4VQATsZcFGwsNQ0">
        <mxGraphModel dx="544" dy="428" grid="1" gridSize="10" guides="1" tooltips="1" connect="1" arrows="1" fold="1" page="1" pageScale="1" pageWidth="1654" pageHeight="1169" math="0" shadow="0">
            <root>
                <mxCell id="ruR7NgKb76N4y2E5YNfO-0"/>
                <mxCell id="ruR7NgKb76N4y2E5YNfO-1" parent="ruR7NgKb76N4y2E5YNfO-0"/>
                <mxCell id="ruR7NgKb76N4y2E5YNfO-2" style="edgeStyle=orthogonalEdgeStyle;rounded=0;orthogonalLoop=1;jettySize=auto;html=1;endArrow=ERoneToMany;endFill=0;startArrow=ERone;startFill=0;" parent="ruR7NgKb76N4y2E5YNfO-1" source="ruR7NgKb76N4y2E5YNfO-3" target="ruR7NgKb76N4y2E5YNfO-40" edge="1">
                    <mxGeometry relative="1" as="geometry">
                        <mxPoint x="470" y="860" as="targetPoint"/>
                    </mxGeometry>
                </mxCell>
                <mxCell id="ruR7NgKb76N4y2E5YNfO-3" value="農作者" style="swimlane;fontStyle=0;childLayout=stackLayout;horizontal=1;startSize=30;horizontalStack=0;resizeParent=1;resizeParentMax=0;resizeLast=0;collapsible=1;marginBottom=0;" parent="ruR7NgKb76N4y2E5YNfO-1" vertex="1">
                    <mxGeometry x="240" y="800" width="140" height="120" as="geometry"/>
                </mxCell>
                <mxCell id="ruR7NgKb76N4y2E5YNfO-4" value="＊農作者ID" style="text;strokeColor=none;fillColor=none;align=left;verticalAlign=middle;spacingLeft=4;spacingRight=4;overflow=hidden;points=[[0,0.5],[1,0.5]];portConstraint=eastwest;rotatable=0;" parent="ruR7NgKb76N4y2E5YNfO-3" vertex="1">
                    <mxGeometry y="30" width="140" height="30" as="geometry"/>
                </mxCell>
                <mxCell id="ruR7NgKb76N4y2E5YNfO-5" value="農作者名" style="text;strokeColor=none;fillColor=none;align=left;verticalAlign=middle;spacingLeft=4;spacingRight=4;overflow=hidden;points=[[0,0.5],[1,0.5]];portConstraint=eastwest;rotatable=0;" parent="ruR7NgKb76N4y2E5YNfO-3" vertex="1">
                    <mxGeometry y="60" width="140" height="30" as="geometry"/>
                </mxCell>
                <mxCell id="ruR7NgKb76N4y2E5YNfO-6" value="農耕地ID" style="text;strokeColor=none;fillColor=none;align=left;verticalAlign=middle;spacingLeft=4;spacingRight=4;overflow=hidden;points=[[0,0.5],[1,0.5]];portConstraint=eastwest;rotatable=0;" parent="ruR7NgKb76N4y2E5YNfO-3" vertex="1">
                    <mxGeometry y="90" width="140" height="30" as="geometry"/>
                </mxCell>
                <mxCell id="ruR7NgKb76N4y2E5YNfO-7" style="edgeStyle=orthogonalEdgeStyle;rounded=0;orthogonalLoop=1;jettySize=auto;html=1;startArrow=ERone;startFill=0;endArrow=ERzeroToMany;endFill=0;" parent="ruR7NgKb76N4y2E5YNfO-1" source="ruR7NgKb76N4y2E5YNfO-8" target="ruR7NgKb76N4y2E5YNfO-33" edge="1">
                    <mxGeometry relative="1" as="geometry">
                        <mxPoint x="704" y="620" as="sourcePoint"/>
                        <Array as="points">
                            <mxPoint x="720" y="730"/>
                            <mxPoint x="720" y="730"/>
                        </Array>
                    </mxGeometry>
                </mxCell>
                <mxCell id="ruR7NgKb76N4y2E5YNfO-8" value="農耕地" style="swimlane;fontStyle=0;childLayout=stackLayout;horizontal=1;startSize=30;horizontalStack=0;resizeParent=1;resizeParentMax=0;resizeLast=0;collapsible=1;marginBottom=0;" parent="ruR7NgKb76N4y2E5YNfO-1" vertex="1">
                    <mxGeometry x="634" y="815" width="140" height="90" as="geometry"/>
                </mxCell>
                <mxCell id="ruR7NgKb76N4y2E5YNfO-9" value="＊農耕地ID" style="text;strokeColor=none;fillColor=none;align=left;verticalAlign=middle;spacingLeft=4;spacingRight=4;overflow=hidden;points=[[0,0.5],[1,0.5]];portConstraint=eastwest;rotatable=0;" parent="ruR7NgKb76N4y2E5YNfO-8" vertex="1">
                    <mxGeometry y="30" width="140" height="30" as="geometry"/>
                </mxCell>
                <mxCell id="ruR7NgKb76N4y2E5YNfO-10" value="農耕地名" style="text;strokeColor=none;fillColor=none;align=left;verticalAlign=middle;spacingLeft=4;spacingRight=4;overflow=hidden;points=[[0,0.5],[1,0.5]];portConstraint=eastwest;rotatable=0;" parent="ruR7NgKb76N4y2E5YNfO-8" vertex="1">
                    <mxGeometry y="60" width="140" height="30" as="geometry"/>
                </mxCell>
                <mxCell id="ruR7NgKb76N4y2E5YNfO-11" value="収穫" style="swimlane;fontStyle=0;childLayout=stackLayout;horizontal=1;startSize=30;horizontalStack=0;resizeParent=1;resizeParentMax=0;resizeLast=0;collapsible=1;marginBottom=0;" parent="ruR7NgKb76N4y2E5YNfO-1" vertex="1">
                    <mxGeometry x="950" y="280" width="140" height="180" as="geometry">
                        <mxRectangle x="510" y="375" width="60" height="30" as="alternateBounds"/>
                    </mxGeometry>
                </mxCell>
                <mxCell id="ruR7NgKb76N4y2E5YNfO-12" value="*収穫ID" style="text;strokeColor=none;fillColor=none;align=left;verticalAlign=middle;spacingLeft=4;spacingRight=4;overflow=hidden;points=[[0,0.5],[1,0.5]];portConstraint=eastwest;rotatable=0;" parent="ruR7NgKb76N4y2E5YNfO-11" vertex="1">
                    <mxGeometry y="30" width="140" height="30" as="geometry"/>
                </mxCell>
                <mxCell id="ruR7NgKb76N4y2E5YNfO-13" value="*機械ID" style="text;strokeColor=none;fillColor=none;align=left;verticalAlign=middle;spacingLeft=4;spacingRight=4;overflow=hidden;points=[[0,0.5],[1,0.5]];portConstraint=eastwest;rotatable=0;" parent="ruR7NgKb76N4y2E5YNfO-11" vertex="1">
                    <mxGeometry y="60" width="140" height="30" as="geometry"/>
                </mxCell>
                <mxCell id="ruR7NgKb76N4y2E5YNfO-14" value="*写真ID" style="text;strokeColor=none;fillColor=none;align=left;verticalAlign=middle;spacingLeft=4;spacingRight=4;overflow=hidden;points=[[0,0.5],[1,0.5]];portConstraint=eastwest;rotatable=0;" parent="ruR7NgKb76N4y2E5YNfO-11" vertex="1">
                    <mxGeometry y="90" width="140" height="30" as="geometry"/>
                </mxCell>
                <mxCell id="ruR7NgKb76N4y2E5YNfO-15" value="収穫日付" style="text;strokeColor=none;fillColor=none;align=left;verticalAlign=middle;spacingLeft=4;spacingRight=4;overflow=hidden;points=[[0,0.5],[1,0.5]];portConstraint=eastwest;rotatable=0;" parent="ruR7NgKb76N4y2E5YNfO-11" vertex="1">
                    <mxGeometry y="120" width="140" height="30" as="geometry"/>
                </mxCell>
                <mxCell id="ruR7NgKb76N4y2E5YNfO-16" value="収穫数" style="text;strokeColor=none;fillColor=none;align=left;verticalAlign=middle;spacingLeft=4;spacingRight=4;overflow=hidden;points=[[0,0.5],[1,0.5]];portConstraint=eastwest;rotatable=0;" parent="ruR7NgKb76N4y2E5YNfO-11" vertex="1">
                    <mxGeometry y="150" width="140" height="30" as="geometry"/>
                </mxCell>
                <mxCell id="ruR7NgKb76N4y2E5YNfO-17" value="温度・湿度" style="swimlane;fontStyle=0;childLayout=stackLayout;horizontal=1;startSize=30;horizontalStack=0;resizeParent=1;resizeParentMax=0;resizeLast=0;collapsible=1;marginBottom=0;" parent="ruR7NgKb76N4y2E5YNfO-1" vertex="1">
                    <mxGeometry x="950" y="760" width="140" height="180" as="geometry">
                        <mxRectangle x="510" y="375" width="60" height="30" as="alternateBounds"/>
                    </mxGeometry>
                </mxCell>
                <mxCell id="ruR7NgKb76N4y2E5YNfO-18" value="*温度_湿度ID" style="text;strokeColor=none;fillColor=none;align=left;verticalAlign=middle;spacingLeft=4;spacingRight=4;overflow=hidden;points=[[0,0.5],[1,0.5]];portConstraint=eastwest;rotatable=0;" parent="ruR7NgKb76N4y2E5YNfO-17" vertex="1">
                    <mxGeometry y="30" width="140" height="30" as="geometry"/>
                </mxCell>
                <mxCell id="ruR7NgKb76N4y2E5YNfO-19" value="農耕地ID" style="text;strokeColor=none;fillColor=none;align=left;verticalAlign=middle;spacingLeft=4;spacingRight=4;overflow=hidden;points=[[0,0.5],[1,0.5]];portConstraint=eastwest;rotatable=0;" parent="ruR7NgKb76N4y2E5YNfO-17" vertex="1">
                    <mxGeometry y="60" width="140" height="30" as="geometry"/>
                </mxCell>
                <mxCell id="ruR7NgKb76N4y2E5YNfO-20" value="日付" style="text;strokeColor=none;fillColor=none;align=left;verticalAlign=middle;spacingLeft=4;spacingRight=4;overflow=hidden;points=[[0,0.5],[1,0.5]];portConstraint=eastwest;rotatable=0;" parent="ruR7NgKb76N4y2E5YNfO-17" vertex="1">
                    <mxGeometry y="90" width="140" height="30" as="geometry"/>
                </mxCell>
                <mxCell id="ruR7NgKb76N4y2E5YNfO-21" value="湿度データ" style="text;strokeColor=none;fillColor=none;align=left;verticalAlign=middle;spacingLeft=4;spacingRight=4;overflow=hidden;points=[[0,0.5],[1,0.5]];portConstraint=eastwest;rotatable=0;" parent="ruR7NgKb76N4y2E5YNfO-17" vertex="1">
                    <mxGeometry y="120" width="140" height="30" as="geometry"/>
                </mxCell>
                <mxCell id="ruR7NgKb76N4y2E5YNfO-22" value="温度データ" style="text;strokeColor=none;fillColor=none;align=left;verticalAlign=middle;spacingLeft=4;spacingRight=4;overflow=hidden;points=[[0,0.5],[1,0.5]];portConstraint=eastwest;rotatable=0;" parent="ruR7NgKb76N4y2E5YNfO-17" vertex="1">
                    <mxGeometry y="150" width="140" height="30" as="geometry"/>
                </mxCell>
                <mxCell id="ruR7NgKb76N4y2E5YNfO-23" style="edgeStyle=orthogonalEdgeStyle;rounded=0;orthogonalLoop=1;jettySize=auto;html=1;endArrow=ERoneToMany;endFill=0;startArrow=ERzeroToOne;startFill=0;" parent="ruR7NgKb76N4y2E5YNfO-1" source="ruR7NgKb76N4y2E5YNfO-8" target="ruR7NgKb76N4y2E5YNfO-17" edge="1">
                    <mxGeometry relative="1" as="geometry">
                        <mxPoint x="784" y="900" as="sourcePoint"/>
                        <mxPoint x="900.0000000000002" y="900" as="targetPoint"/>
                        <Array as="points">
                            <mxPoint x="860" y="860"/>
                            <mxPoint x="860" y="860"/>
                        </Array>
                    </mxGeometry>
                </mxCell>
                <mxCell id="ruR7NgKb76N4y2E5YNfO-24" value="未収穫" style="swimlane;fontStyle=0;childLayout=stackLayout;horizontal=1;startSize=30;horizontalStack=0;resizeParent=1;resizeParentMax=0;resizeLast=0;collapsible=1;marginBottom=0;" parent="ruR7NgKb76N4y2E5YNfO-1" vertex="1">
                    <mxGeometry x="950" y="475" width="140" height="180" as="geometry">
                        <mxRectangle x="510" y="375" width="60" height="30" as="alternateBounds"/>
                    </mxGeometry>
                </mxCell>
                <mxCell id="ruR7NgKb76N4y2E5YNfO-25" value="*未収穫ID" style="text;strokeColor=none;fillColor=none;align=left;verticalAlign=middle;spacingLeft=4;spacingRight=4;overflow=hidden;points=[[0,0.5],[1,0.5]];portConstraint=eastwest;rotatable=0;" parent="ruR7NgKb76N4y2E5YNfO-24" vertex="1">
                    <mxGeometry y="30" width="140" height="30" as="geometry"/>
                </mxCell>
                <mxCell id="ruR7NgKb76N4y2E5YNfO-26" value="*機械ID" style="text;strokeColor=none;fillColor=none;align=left;verticalAlign=middle;spacingLeft=4;spacingRight=4;overflow=hidden;points=[[0,0.5],[1,0.5]];portConstraint=eastwest;rotatable=0;" parent="ruR7NgKb76N4y2E5YNfO-24" vertex="1">
                    <mxGeometry y="60" width="140" height="30" as="geometry"/>
                </mxCell>
                <mxCell id="ruR7NgKb76N4y2E5YNfO-27" value="*写真ID" style="text;strokeColor=none;fillColor=none;align=left;verticalAlign=middle;spacingLeft=4;spacingRight=4;overflow=hidden;points=[[0,0.5],[1,0.5]];portConstraint=eastwest;rotatable=0;" parent="ruR7NgKb76N4y2E5YNfO-24" vertex="1">
                    <mxGeometry y="90" width="140" height="30" as="geometry"/>
                </mxCell>
                <mxCell id="ruR7NgKb76N4y2E5YNfO-28" value="収穫日付" style="text;strokeColor=none;fillColor=none;align=left;verticalAlign=middle;spacingLeft=4;spacingRight=4;overflow=hidden;points=[[0,0.5],[1,0.5]];portConstraint=eastwest;rotatable=0;" parent="ruR7NgKb76N4y2E5YNfO-24" vertex="1">
                    <mxGeometry y="120" width="140" height="30" as="geometry"/>
                </mxCell>
                <mxCell id="ruR7NgKb76N4y2E5YNfO-29" value="未収穫数" style="text;strokeColor=none;fillColor=none;align=left;verticalAlign=middle;spacingLeft=4;spacingRight=4;overflow=hidden;points=[[0,0.5],[1,0.5]];portConstraint=eastwest;rotatable=0;" parent="ruR7NgKb76N4y2E5YNfO-24" vertex="1">
                    <mxGeometry y="150" width="140" height="30" as="geometry"/>
                </mxCell>
                <mxCell id="ruR7NgKb76N4y2E5YNfO-30" value="農作物" style="swimlane;fontStyle=0;childLayout=stackLayout;horizontal=1;startSize=30;horizontalStack=0;resizeParent=1;resizeParentMax=0;resizeLast=0;collapsible=1;marginBottom=0;" parent="ruR7NgKb76N4y2E5YNfO-1" vertex="1">
                    <mxGeometry x="400" y="490" width="140" height="90" as="geometry">
                        <mxRectangle x="510" y="375" width="60" height="30" as="alternateBounds"/>
                    </mxGeometry>
                </mxCell>
                <mxCell id="ruR7NgKb76N4y2E5YNfO-31" value="*農作物ID" style="text;strokeColor=none;fillColor=none;align=left;verticalAlign=middle;spacingLeft=4;spacingRight=4;overflow=hidden;points=[[0,0.5],[1,0.5]];portConstraint=eastwest;rotatable=0;" parent="ruR7NgKb76N4y2E5YNfO-30" vertex="1">
                    <mxGeometry y="30" width="140" height="30" as="geometry"/>
                </mxCell>
                <mxCell id="ruR7NgKb76N4y2E5YNfO-32" value="作物名" style="text;strokeColor=none;fillColor=none;align=left;verticalAlign=middle;spacingLeft=4;spacingRight=4;overflow=hidden;points=[[0,0.5],[1,0.5]];portConstraint=eastwest;rotatable=0;" parent="ruR7NgKb76N4y2E5YNfO-30" vertex="1">
                    <mxGeometry y="60" width="140" height="30" as="geometry"/>
                </mxCell>
                <mxCell id="ruR7NgKb76N4y2E5YNfO-33" value="機械" style="swimlane;fontStyle=0;childLayout=stackLayout;horizontal=1;startSize=30;horizontalStack=0;resizeParent=1;resizeParentMax=0;resizeLast=0;collapsible=1;marginBottom=0;" parent="ruR7NgKb76N4y2E5YNfO-1" vertex="1">
                    <mxGeometry x="634" y="485" width="140" height="120" as="geometry">
                        <mxRectangle x="510" y="375" width="60" height="30" as="alternateBounds"/>
                    </mxGeometry>
                </mxCell>
                <mxCell id="ruR7NgKb76N4y2E5YNfO-34" value="*機械ID" style="text;strokeColor=none;fillColor=none;align=left;verticalAlign=middle;spacingLeft=4;spacingRight=4;overflow=hidden;points=[[0,0.5],[1,0.5]];portConstraint=eastwest;rotatable=0;" parent="ruR7NgKb76N4y2E5YNfO-33" vertex="1">
                    <mxGeometry y="30" width="140" height="30" as="geometry"/>
                </mxCell>
                <mxCell id="ruR7NgKb76N4y2E5YNfO-35" value="農耕地ID" style="text;strokeColor=none;fillColor=none;align=left;verticalAlign=middle;spacingLeft=4;spacingRight=4;overflow=hidden;points=[[0,0.5],[1,0.5]];portConstraint=eastwest;rotatable=0;" parent="ruR7NgKb76N4y2E5YNfO-33" vertex="1">
                    <mxGeometry y="60" width="140" height="30" as="geometry"/>
                </mxCell>
                <mxCell id="ruR7NgKb76N4y2E5YNfO-36" value="機械番号" style="text;strokeColor=none;fillColor=none;align=left;verticalAlign=middle;spacingLeft=4;spacingRight=4;overflow=hidden;points=[[0,0.5],[1,0.5]];portConstraint=eastwest;rotatable=0;" parent="ruR7NgKb76N4y2E5YNfO-33" vertex="1">
                    <mxGeometry y="90" width="140" height="30" as="geometry"/>
                </mxCell>
                <mxCell id="ruR7NgKb76N4y2E5YNfO-37" style="edgeStyle=orthogonalEdgeStyle;rounded=0;orthogonalLoop=1;jettySize=auto;html=1;endArrow=ERone;endFill=0;startArrow=ERoneToMany;startFill=0;" parent="ruR7NgKb76N4y2E5YNfO-1" source="ruR7NgKb76N4y2E5YNfO-11" target="ruR7NgKb76N4y2E5YNfO-33" edge="1">
                    <mxGeometry relative="1" as="geometry">
                        <mxPoint x="710" y="590" as="sourcePoint"/>
                        <mxPoint x="900.0000000000002" y="870" as="targetPoint"/>
                        <Array as="points">
                            <mxPoint x="870" y="300"/>
                            <mxPoint x="870" y="545"/>
                        </Array>
                    </mxGeometry>
                </mxCell>
                <mxCell id="ruR7NgKb76N4y2E5YNfO-38" style="edgeStyle=orthogonalEdgeStyle;rounded=0;orthogonalLoop=1;jettySize=auto;html=1;endArrow=ERone;endFill=0;startArrow=ERoneToMany;startFill=0;" parent="ruR7NgKb76N4y2E5YNfO-1" source="ruR7NgKb76N4y2E5YNfO-24" target="ruR7NgKb76N4y2E5YNfO-33" edge="1">
                    <mxGeometry relative="1" as="geometry">
                        <mxPoint x="900.0000000000002" y="1090" as="sourcePoint"/>
                        <mxPoint x="750.04347826087" y="915" as="targetPoint"/>
                        <Array as="points">
                            <mxPoint x="920" y="545"/>
                            <mxPoint x="920" y="545"/>
                        </Array>
                    </mxGeometry>
                </mxCell>
                <mxCell id="ruR7NgKb76N4y2E5YNfO-39" style="edgeStyle=orthogonalEdgeStyle;rounded=0;orthogonalLoop=1;jettySize=auto;html=1;endArrow=ERzeroToMany;endFill=0;startArrow=ERone;startFill=0;" parent="ruR7NgKb76N4y2E5YNfO-1" source="ruR7NgKb76N4y2E5YNfO-30" target="ruR7NgKb76N4y2E5YNfO-45" edge="1">
                    <mxGeometry relative="1" as="geometry">
                        <mxPoint x="465.9565217391307" y="1210" as="sourcePoint"/>
                        <mxPoint x="465.9565217391307" y="915" as="targetPoint"/>
                        <Array as="points">
                            <mxPoint x="470" y="650"/>
                            <mxPoint x="470" y="650"/>
                        </Array>
                    </mxGeometry>
                </mxCell>
                <mxCell id="ruR7NgKb76N4y2E5YNfO-40" value="所有" style="swimlane;fontStyle=0;childLayout=stackLayout;horizontal=1;startSize=30;horizontalStack=0;resizeParent=1;resizeParentMax=0;resizeLast=0;collapsible=1;marginBottom=0;" parent="ruR7NgKb76N4y2E5YNfO-1" vertex="1">
                    <mxGeometry x="440" y="815" width="140" height="90" as="geometry"/>
                </mxCell>
                <mxCell id="ruR7NgKb76N4y2E5YNfO-41" value="＊農作者ID" style="text;strokeColor=none;fillColor=none;align=left;verticalAlign=middle;spacingLeft=4;spacingRight=4;overflow=hidden;points=[[0,0.5],[1,0.5]];portConstraint=eastwest;rotatable=0;" parent="ruR7NgKb76N4y2E5YNfO-40" vertex="1">
                    <mxGeometry y="30" width="140" height="30" as="geometry"/>
                </mxCell>
                <mxCell id="ruR7NgKb76N4y2E5YNfO-42" value="＊農耕地ID" style="text;strokeColor=none;fillColor=none;align=left;verticalAlign=middle;spacingLeft=4;spacingRight=4;overflow=hidden;points=[[0,0.5],[1,0.5]];portConstraint=eastwest;rotatable=0;" parent="ruR7NgKb76N4y2E5YNfO-40" vertex="1">
                    <mxGeometry y="60" width="140" height="30" as="geometry"/>
                </mxCell>
                <mxCell id="ruR7NgKb76N4y2E5YNfO-43" value="*収穫と未収穫の識別子が必要&lt;br&gt;（写真ID&lt;br&gt;の区別がつかなくなる）*" style="shape=callout;whiteSpace=wrap;html=1;perimeter=calloutPerimeter;size=15;position=0.46;" parent="ruR7NgKb76N4y2E5YNfO-1" vertex="1">
                    <mxGeometry x="1173.5" y="255" width="213" height="80" as="geometry"/>
                </mxCell>
                <mxCell id="ruR7NgKb76N4y2E5YNfO-44" style="edgeStyle=orthogonalEdgeStyle;rounded=0;orthogonalLoop=1;jettySize=auto;html=1;endArrow=ERoneToMany;endFill=0;startArrow=ERone;startFill=0;" parent="ruR7NgKb76N4y2E5YNfO-1" source="ruR7NgKb76N4y2E5YNfO-9" target="ruR7NgKb76N4y2E5YNfO-40" edge="1">
                    <mxGeometry relative="1" as="geometry"/>
                </mxCell>
                <mxCell id="ruR7NgKb76N4y2E5YNfO-45" value="植付" style="swimlane;fontStyle=0;childLayout=stackLayout;horizontal=1;startSize=30;horizontalStack=0;resizeParent=1;resizeParentMax=0;resizeLast=0;collapsible=1;marginBottom=0;" parent="ruR7NgKb76N4y2E5YNfO-1" vertex="1">
                    <mxGeometry x="400" y="630" width="140" height="120" as="geometry"/>
                </mxCell>
                <mxCell id="ruR7NgKb76N4y2E5YNfO-46" value="＊農作物ID" style="text;strokeColor=none;fillColor=none;align=left;verticalAlign=middle;spacingLeft=4;spacingRight=4;overflow=hidden;points=[[0,0.5],[1,0.5]];portConstraint=eastwest;rotatable=0;" parent="ruR7NgKb76N4y2E5YNfO-45" vertex="1">
                    <mxGeometry y="30" width="140" height="30" as="geometry"/>
                </mxCell>
                <mxCell id="ruR7NgKb76N4y2E5YNfO-47" value="＊農耕地ID" style="text;strokeColor=none;fillColor=none;align=left;verticalAlign=middle;spacingLeft=4;spacingRight=4;overflow=hidden;points=[[0,0.5],[1,0.5]];portConstraint=eastwest;rotatable=0;" parent="ruR7NgKb76N4y2E5YNfO-45" vertex="1">
                    <mxGeometry y="60" width="140" height="30" as="geometry"/>
                </mxCell>
                <mxCell id="ruR7NgKb76N4y2E5YNfO-48" value="開始日付" style="text;strokeColor=none;fillColor=none;align=left;verticalAlign=middle;spacingLeft=4;spacingRight=4;overflow=hidden;points=[[0,0.5],[1,0.5]];portConstraint=eastwest;rotatable=0;" parent="ruR7NgKb76N4y2E5YNfO-45" vertex="1">
                    <mxGeometry y="90" width="140" height="30" as="geometry"/>
                </mxCell>
                <mxCell id="ruR7NgKb76N4y2E5YNfO-49" style="edgeStyle=orthogonalEdgeStyle;rounded=0;orthogonalLoop=1;jettySize=auto;html=1;startArrow=ERone;startFill=0;endArrow=ERzeroToMany;endFill=0;" parent="ruR7NgKb76N4y2E5YNfO-1" source="ruR7NgKb76N4y2E5YNfO-8" target="ruR7NgKb76N4y2E5YNfO-45" edge="1">
                    <mxGeometry relative="1" as="geometry">
                        <Array as="points">
                            <mxPoint x="680" y="700"/>
                        </Array>
                    </mxGeometry>
                </mxCell>
                <mxCell id="ruR7NgKb76N4y2E5YNfO-50" style="edgeStyle=orthogonalEdgeStyle;rounded=0;orthogonalLoop=1;jettySize=auto;html=1;startArrow=ERoneToMany;startFill=0;endArrow=ERone;endFill=0;" parent="ruR7NgKb76N4y2E5YNfO-1" source="ruR7NgKb76N4y2E5YNfO-11" target="ruR7NgKb76N4y2E5YNfO-52" edge="1">
                    <mxGeometry relative="1" as="geometry">
                        <Array as="points">
                            <mxPoint x="1155" y="300"/>
                            <mxPoint x="1155" y="400"/>
                        </Array>
                    </mxGeometry>
                </mxCell>
                <mxCell id="ruR7NgKb76N4y2E5YNfO-51" style="edgeStyle=orthogonalEdgeStyle;rounded=0;orthogonalLoop=1;jettySize=auto;html=1;startArrow=ERoneToMany;startFill=0;endArrow=ERone;endFill=0;" parent="ruR7NgKb76N4y2E5YNfO-1" source="ruR7NgKb76N4y2E5YNfO-24" target="ruR7NgKb76N4y2E5YNfO-52" edge="1">
                    <mxGeometry relative="1" as="geometry"/>
                </mxCell>
                <mxCell id="ruR7NgKb76N4y2E5YNfO-52" value="写真" style="swimlane;fontStyle=0;childLayout=stackLayout;horizontal=1;startSize=30;horizontalStack=0;resizeParent=1;resizeParentMax=0;resizeLast=0;collapsible=1;marginBottom=0;" parent="ruR7NgKb76N4y2E5YNfO-1" vertex="1">
                    <mxGeometry x="1210" y="340" width="140" height="120" as="geometry">
                        <mxRectangle x="510" y="375" width="60" height="30" as="alternateBounds"/>
                    </mxGeometry>
                </mxCell>
                <mxCell id="ruR7NgKb76N4y2E5YNfO-53" value="*ID" style="text;strokeColor=none;fillColor=none;align=left;verticalAlign=middle;spacingLeft=4;spacingRight=4;overflow=hidden;points=[[0,0.5],[1,0.5]];portConstraint=eastwest;rotatable=0;" parent="ruR7NgKb76N4y2E5YNfO-52" vertex="1">
                    <mxGeometry y="30" width="140" height="30" as="geometry"/>
                </mxCell>
                <mxCell id="ruR7NgKb76N4y2E5YNfO-54" value="*num" style="text;strokeColor=none;fillColor=none;align=left;verticalAlign=middle;spacingLeft=4;spacingRight=4;overflow=hidden;points=[[0,0.5],[1,0.5]];portConstraint=eastwest;rotatable=0;" parent="ruR7NgKb76N4y2E5YNfO-52" vertex="1">
                    <mxGeometry y="60" width="140" height="30" as="geometry"/>
                </mxCell>
                <mxCell id="ruR7NgKb76N4y2E5YNfO-55" value="写真URL" style="text;strokeColor=none;fillColor=none;align=left;verticalAlign=middle;spacingLeft=4;spacingRight=4;overflow=hidden;points=[[0,0.5],[1,0.5]];portConstraint=eastwest;rotatable=0;" parent="ruR7NgKb76N4y2E5YNfO-52" vertex="1">
                    <mxGeometry y="90" width="140" height="30" as="geometry"/>
                </mxCell>
                <mxCell id="ruR7NgKb76N4y2E5YNfO-56" value="例：a1,b1など" style="shape=callout;whiteSpace=wrap;html=1;perimeter=calloutPerimeter;size=15;position=0.46;rotation=15;" parent="ruR7NgKb76N4y2E5YNfO-1" vertex="1">
                    <mxGeometry x="1240" y="170" width="213" height="80" as="geometry"/>
                </mxCell>
                <mxCell id="ruR7NgKb76N4y2E5YNfO-57" style="edgeStyle=none;html=1;" parent="ruR7NgKb76N4y2E5YNfO-1" source="ruR7NgKb76N4y2E5YNfO-58" target="ruR7NgKb76N4y2E5YNfO-43" edge="1">
                    <mxGeometry relative="1" as="geometry"/>
                </mxCell>
                <mxCell id="ruR7NgKb76N4y2E5YNfO-58" value="今回はフォルダーを変える事で対応" style="shape=note;whiteSpace=wrap;html=1;backgroundOutline=1;darkOpacity=0.05;" parent="ruR7NgKb76N4y2E5YNfO-1" vertex="1">
                    <mxGeometry x="1410" y="355" width="100" height="90" as="geometry"/>
                </mxCell>
            </root>
        </mxGraphModel>
    </diagram>
</mxfile>